<?xml version="1.0" standalone="no"?>
<!DOCTYPE svg PUBLIC "-//W3C//DTD SVG 1.1//EN" "http://www.w3.org/Graphics/SVG/1.1/DTD/svg11.dtd" >
<svg xmlns="http://www.w3.org/2000/svg" xmlns:xlink="http://www.w3.org/1999/xlink" version="1.1">
<metadata>
Created by FontForge 20170910 at Mon Oct 26 22:54:43 2015
 By Jimmy Wärting
Copyright \(c\) 2015 by Radomir Tinkov. All rights reserved.
</metadata>
<defs>
<font id="Qanelas-Regular" horiz-adv-x="630" >
  <font-face 
    font-family="Qanelas"
    font-weight="400"
    font-stretch="normal"
    units-per-em="1000"
    panose-1="0 0 5 0 0 0 0 0 0 0"
    ascent="800"
    descent="-200"
    x-height="500"
    cap-height="700"
    bbox="-317 -240 1049 960"
    underline-thickness="50"
    underline-position="-100"
    unicode-range="U+0020-FB02"
  />
<missing-glyph horiz-adv-x="500" 
d="M410 800v-1000h-317v1000h317zM333 733h-165v-33h65v-37h-66v-33h166v33h-66v37h66v33zM267 604h-100v-104h166v34h-66v70zM233 570v-36h-33v36h33zM333 473h-166v-33h66v-37h-66v-33h100v70h66v33zM333 413h-33v-66h-133v-34h166v100zM333 291h-100v-56h34v23h33v-47
h-100v80h-33v-113h166v113zM333 118h-166v-113h166v113zM300 85v-47h-100v47h100zM333 -18h-166v-33h70l-70 -47v-33h166v33h-102l70 47h32v33z" />
    <glyph glyph-name="f_f" unicode="ff" horiz-adv-x="585" 
d="M585 658c-97 8 -144 -32 -144 -128v-30h144v-64h-144v-436h-66v436h-85h-119v-436h-66v436h-85v64h85v20c0 130 75 202 210 192v-64c-97 8 -144 -32 -144 -128v-20h144h60v30c0 130 75 202 210 192v-64z" />
    <glyph glyph-name="f_f_i" unicode="ffi" horiz-adv-x="781" 
d="M711 500v-500h-66v436h-204v-436h-66v436h-85h-119v-436h-66v436h-85v64h85v20c0 130 75 202 210 192v-64c-97 8 -144 -32 -144 -128v-20h144h60v30c0 130 75 192 210 192c30 0 60 -4 96 -12v-60c-35 6 -65 8 -96 8c-97 0 -144 -32 -144 -128v-30h270z" />
    <glyph glyph-name="f_f_l" unicode="ffl" horiz-adv-x="781" 
d="M585 722c41 0 81 -4 126 -12v-710h-66v659c-21 2 -40 3 -60 3c-97 0 -144 -36 -144 -132v-30h114v-64h-114v-436h-66v436h-85h-119v-436h-66v436h-85v64h85v20c0 130 75 202 210 192v-64c-97 8 -144 -32 -144 -128v-20h144h60v30c0 130 75 192 210 192z" />
    <glyph glyph-name="fi" unicode="fi" horiz-adv-x="511" 
d="M441 500v-500h-66v436h-204v-436h-66v436h-85v64h85v20c0 130 75 192 210 192c30 0 60 -4 96 -12v-60c-35 6 -65 8 -96 8c-97 0 -144 -32 -144 -128v-20h270z" />
    <glyph glyph-name="fl" unicode="fl" horiz-adv-x="511" 
d="M315 712c41 0 81 -4 126 -12v-700h-66v649c-21 2 -40 3 -60 3c-97 0 -144 -36 -144 -132v-20h114v-64h-114v-436h-66v436h-85v64h85v20c0 130 75 192 210 192z" />
    <glyph glyph-name=".notdef" horiz-adv-x="500" 
d="M410 800v-1000h-317v1000h317zM333 733h-165v-33h65v-37h-66v-33h166v33h-66v37h66v33zM267 604h-100v-104h166v34h-66v70zM233 570v-36h-33v36h33zM333 473h-166v-33h66v-37h-66v-33h100v70h66v33zM333 413h-33v-66h-133v-34h166v100zM333 291h-100v-56h34v23h33v-47
h-100v80h-33v-113h166v113zM333 118h-166v-113h166v113zM300 85v-47h-100v47h100zM333 -18h-166v-33h70l-70 -47v-33h166v33h-102l70 47h32v33z" />
    <glyph glyph-name="A" unicode="A" 
d="M546 0l-65 172h-332l-65 -172h-74l269 700h72l269 -700h-74zM174 238h282l-141 375z" />
    <glyph glyph-name="Aacute" unicode="&#xc1;" 
d="M425 900l-96 -130h-64l80 130h80zM546 0l-65 172h-332l-65 -172h-74l269 700h72l269 -700h-74zM174 238h282l-141 375z" />
    <glyph glyph-name="Abreve" unicode="&#x102;" 
d="M315 762c-84 0 -140 47 -140 130h64c0 -52 27 -72 76 -72s76 20 76 72h64c0 -83 -54 -130 -140 -130zM546 0l-65 172h-332l-65 -172h-74l269 700h72l269 -700h-74zM174 238h282l-141 375z" />
    <glyph glyph-name="Acircumflex" unicode="&#xc2;" 
d="M315 857l-70 -87h-75l106 130h74h4l106 -130h-75zM546 0l-65 172h-332l-65 -172h-74l269 700h72l269 -700h-74zM174 238h282l-141 375z" />
    <glyph glyph-name="Adieresis" unicode="&#xc4;" 
d="M255 860v-80h-80v80h80zM455 860v-80h-80v80h80zM546 0l-65 172h-332l-65 -172h-74l269 700h72l269 -700h-74zM174 238h282l-141 375z" />
    <glyph glyph-name="Agrave" unicode="&#xc0;" 
d="M355 770h-64l-96 130h80zM546 0l-65 172h-332l-65 -172h-74l269 700h72l269 -700h-74zM174 238h282l-141 375z" />
    <glyph glyph-name="Amacron" unicode="&#x100;" 
d="M445 838v-58h-260v58h260zM546 0l-65 172h-332l-65 -172h-74l269 700h72l269 -700h-74zM174 238h282l-141 375z" />
    <glyph glyph-name="Aogonek" unicode="&#x104;" 
d="M544 -124c0 -22 13 -31 34 -31c15 0 28 3 42 9v-55c-17 -7 -36 -11 -59 -11c-54 0 -82 32 -82 76c0 40 25 90 72 136h-5l-65 172h-332l-65 -172h-74l269 700h72l269 -700c-46 -42 -76 -91 -76 -124zM174 238h282l-141 375z" />
    <glyph glyph-name="Aring" unicode="&#xc5;" 
d="M315 750c-63 0 -106 43 -106 100s43 100 106 100c64 0 106 -43 106 -100s-42 -100 -106 -100zM315 899c-33 0 -51 -21 -51 -49s18 -49 51 -49c34 0 52 21 52 49s-18 49 -52 49zM546 0l-65 172h-332l-65 -172h-74l269 700h72l269 -700h-74zM174 238h282l-141 375z" />
    <glyph glyph-name="Atilde" unicode="&#xc3;" 
d="M315 803c-53 40 -82 56 -82 -23h-58c0 123 72 139 141 87c53 -40 81 -56 81 23h58c0 -123 -71 -139 -140 -87zM546 0l-65 172h-332l-65 -172h-74l269 700h72l269 -700h-74zM174 238h282l-141 375z" />
    <glyph glyph-name="AE" unicode="&#xc6;" horiz-adv-x="880" 
d="M520 66h320v-66h-360h-30v172h-265l-105 -172h-80l145 237v1h1l283 462h51h40h315v-66h-315v-248h300v-66h-300v-254zM225 238h225v369z" />
    <glyph glyph-name="B" unicode="B" horiz-adv-x="685" 
d="M516 443c81 -35 134 -117 134 -213c0 -126 -94 -230 -221 -230h-339h-10v700h70h209c110 0 181 -77 181 -171c0 -31 -9 -61 -24 -86zM359 634h-209v-174h280h15c16 18 25 43 25 69c0 58 -40 105 -111 105zM419 66c98 0 161 74 161 164c0 91 -62 164 -160 164h-270v-328
h269z" />
    <glyph glyph-name="C" unicode="C" horiz-adv-x="765" 
d="M407 -12c-215 0 -367 162 -367 362s152 362 367 362c154 0 286 -96 328 -232h-76c-37 97 -137 164 -252 164c-177 0 -297 -131 -297 -294s120 -294 297 -294c115 0 215 67 252 164h76c-42 -136 -174 -232 -328 -232z" />
    <glyph glyph-name="Cacute" unicode="&#x106;" horiz-adv-x="765" 
d="M357 770h64l96 130h-80zM407 -12c-215 0 -367 162 -367 362s152 362 367 362c154 0 286 -96 328 -232h-76c-37 97 -137 164 -252 164c-177 0 -297 -131 -297 -294s120 -294 297 -294c115 0 215 67 252 164h76c-42 -136 -174 -232 -328 -232z" />
    <glyph glyph-name="Ccaron" unicode="&#x10c;" horiz-adv-x="765" 
d="M368 770l-106 130h75l70 -87l70 87h75l-106 -130h-78zM407 56c115 0 215 67 252 164h76c-42 -136 -174 -232 -328 -232c-215 0 -367 162 -367 362s152 362 367 362c154 0 286 -96 328 -232h-76c-37 97 -137 164 -252 164c-177 0 -297 -131 -297 -294s120 -294 297 -294z
" />
    <glyph glyph-name="Ccedilla" unicode="&#xc7;" horiz-adv-x="765" 
d="M407 56c115 0 215 67 252 164h76c-40 -128 -159 -221 -301 -231v-34c57 -10 93 -40 93 -81c0 -50 -37 -100 -205 -90v54c98 -8 147 7 147 36c0 28 -35 39 -93 41v74c-198 15 -336 171 -336 361c0 200 152 362 367 362c154 0 286 -96 328 -232h-76
c-37 97 -137 164 -252 164c-177 0 -297 -131 -297 -294s120 -294 297 -294z" />
    <glyph glyph-name="Cdotaccent" unicode="&#x10a;" horiz-adv-x="765" 
d="M362 780v90h90v-90h-90zM407 -12c-215 0 -367 162 -367 362s152 362 367 362c154 0 286 -96 328 -232h-76c-37 97 -137 164 -252 164c-177 0 -297 -131 -297 -294s120 -294 297 -294c115 0 215 67 252 164h76c-42 -136 -174 -232 -328 -232z" />
    <glyph glyph-name="D" unicode="D" horiz-adv-x="740" 
d="M370 700c193 0 330 -157 330 -350s-137 -350 -330 -350h-260h-30v700h70h220zM370 66c156 0 262 127 262 284s-106 284 -262 284h-220v-568h220z" />
    <glyph glyph-name="Eth" unicode="&#xd0;" horiz-adv-x="760" 
d="M390 700c193 0 330 -157 330 -350s-137 -350 -330 -350h-260h-30v318h-70v64h70v318h70h220zM390 66c156 0 262 127 262 284s-106 284 -262 284h-220v-252h220v-64h-220v-252h220z" />
    <glyph glyph-name="Dcaron" unicode="&#x10e;" horiz-adv-x="740" 
d="M311 770l-106 130h75l70 -87l70 87h75l-106 -130h-78zM370 700c193 0 330 -157 330 -350s-137 -350 -330 -350h-260h-30v700h70h220zM370 66c156 0 262 127 262 284s-106 284 -262 284h-220v-568h220z" />
    <glyph glyph-name="Dcroat" unicode="&#x110;" horiz-adv-x="760" 
d="M390 700c193 0 330 -157 330 -350s-137 -350 -330 -350h-260h-30v318h-70v64h70v318h70h220zM390 66c156 0 262 127 262 284s-106 284 -262 284h-220v-252h220v-64h-220v-252h220z" />
    <glyph glyph-name="E" unicode="E" horiz-adv-x="520" 
d="M150 66h330v-66h-370h-30v700h70h325v-66h-325v-248h300v-66h-300v-254z" />
    <glyph glyph-name="Eacute" unicode="&#xc9;" horiz-adv-x="520" 
d="M388 900l-96 -130h-64l80 130h80zM150 66h330v-66h-370h-30v700h70h325v-66h-325v-248h300v-66h-300v-254z" />
    <glyph glyph-name="Ecaron" unicode="&#x11a;" horiz-adv-x="520" 
d="M239 770l-106 130h75l70 -87l70 87h75l-106 -130h-78zM150 66h330v-66h-370h-30v700h70h325v-66h-325v-248h300v-66h-300v-254z" />
    <glyph glyph-name="Ecircumflex" unicode="&#xca;" horiz-adv-x="520" 
d="M278 857l-70 -87h-75l106 130h74h4l106 -130h-75zM150 66h330v-66h-370h-30v700h70h325v-66h-325v-248h300v-66h-300v-254z" />
    <glyph glyph-name="Edieresis" unicode="&#xcb;" horiz-adv-x="520" 
d="M218 860v-80h-80v80h80zM418 860v-80h-80v80h80zM150 66h330v-66h-370h-30v700h70h325v-66h-325v-248h300v-66h-300v-254z" />
    <glyph glyph-name="Edotaccent" unicode="&#x116;" horiz-adv-x="520" 
d="M323 870v-90h-90v90h90zM150 66h330v-66h-370h-30v700h70h325v-66h-325v-248h300v-66h-300v-254z" />
    <glyph glyph-name="Egrave" unicode="&#xc8;" horiz-adv-x="520" 
d="M318 770h-64l-96 130h80zM150 66h330v-66h-370h-30v700h70h325v-66h-325v-248h300v-66h-300v-254z" />
    <glyph glyph-name="Emacron" unicode="&#x112;" horiz-adv-x="520" 
d="M408 838v-58h-260v58h260zM150 66h330v-66h-370h-30v700h70h325v-66h-325v-248h300v-66h-300v-254z" />
    <glyph glyph-name="Eogonek" unicode="&#x118;" horiz-adv-x="520" 
d="M480 0c-46 -42 -76 -91 -76 -124c0 -22 13 -31 34 -31c15 0 28 3 42 9v-55c-17 -7 -36 -11 -59 -11c-54 0 -82 32 -82 76c0 40 25 90 72 136h-301h-30v700h70h325v-66h-325v-248h300v-66h-300v-254h330v-66z" />
    <glyph glyph-name="F" unicode="F" horiz-adv-x="495" 
d="M475 634h-325v-278h310v-66h-310v-290h-70v700h70h325v-66z" />
    <glyph glyph-name="G" unicode="G" horiz-adv-x="795" 
d="M420 287v66h310v-66v-287h-70v108c-54 -82 -154 -120 -258 -120c-210 0 -362 162 -362 362s152 362 362 362c154 0 286 -96 328 -232h-76c-37 97 -137 164 -252 164c-172 0 -292 -131 -292 -294s120 -294 292 -294c139 0 258 75 258 214v17h-240z" />
    <glyph glyph-name="Gbreve" unicode="&#x11e;" horiz-adv-x="795" 
d="M392 762c-84 0 -140 47 -140 130h64c0 -52 27 -72 76 -72s76 20 76 72h64c0 -83 -54 -130 -140 -130zM420 287v66h310v-66v-287h-70v108c-54 -82 -154 -120 -258 -120c-210 0 -362 162 -362 362s152 362 362 362c154 0 286 -96 328 -232h-76c-37 97 -137 164 -252 164
c-172 0 -292 -131 -292 -294s120 -294 292 -294c139 0 258 75 258 214v17h-240z" />
    <glyph glyph-name="Gcommaaccent" unicode="&#x122;" horiz-adv-x="795" 
d="M420 287v66h310v-66v-287h-70v108c-54 -82 -154 -120 -258 -120c-210 0 -362 162 -362 362s152 362 362 362c154 0 286 -96 328 -232h-76c-37 97 -137 164 -252 164c-172 0 -292 -131 -292 -294s120 -294 292 -294c139 0 258 75 258 214v17h-240zM385 -240l10 170h66
l-30 -170h-46z" />
    <glyph glyph-name="Gdotaccent" unicode="&#x120;" horiz-adv-x="795" 
d="M437 870v-90h-90v90h90zM420 287v66h310v-66v-287h-70v108c-54 -82 -154 -120 -258 -120c-210 0 -362 162 -362 362s152 362 362 362c154 0 286 -96 328 -232h-76c-37 97 -137 164 -252 164c-172 0 -292 -131 -292 -294s120 -294 292 -294c139 0 258 75 258 214v17h-240z
" />
    <glyph glyph-name="H" unicode="H" 
d="M480 700h70v-700h-70v327h-330v-327h-70v700h70v-307h330v307z" />
    <glyph glyph-name="Hbar" unicode="&#x126;" horiz-adv-x="680" 
d="M640 568v-56h-65v-512h-70v327h-330v-327h-70v512h-65v56h65v132h70v-132h330v132h70v-132h65zM505 393v119h-330v-119h330z" />
    <glyph glyph-name="I" unicode="I" horiz-adv-x="230" 
d="M80 700h70v-700h-70v700z" />
    <glyph glyph-name="Iacute" unicode="&#xcd;" horiz-adv-x="230" 
d="M65 770h64l96 130h-80zM80 700h70v-700h-70v700z" />
    <glyph glyph-name="Icircumflex" unicode="&#xce;" horiz-adv-x="230" 
d="M154 900l106 -130h-75l-70 87l-70 -87h-75l106 130h74h4zM80 0v700h70v-700h-70z" />
    <glyph glyph-name="Idieresis" unicode="&#xcf;" horiz-adv-x="230" 
d="M-25 780v80h80v-80h-80zM175 780v80h80v-80h-80zM80 700h70v-700h-70v700z" />
    <glyph glyph-name="Idotaccent" unicode="&#x130;" horiz-adv-x="230" 
d="M70 780v90h90v-90h-90zM80 700h70v-700h-70v700z" />
    <glyph glyph-name="Igrave" unicode="&#xcc;" horiz-adv-x="230" 
d="M155 770l-80 130h-80l96 -130h64zM80 700h70v-700h-70v700z" />
    <glyph glyph-name="Imacron" unicode="&#x12a;" horiz-adv-x="230" 
d="M-15 780v58h260v-58h-260zM80 700h70v-700h-70v700z" />
    <glyph glyph-name="Iogonek" unicode="&#x12e;" horiz-adv-x="230" 
d="M139 -155c15 0 28 3 42 9v-55c-17 -7 -36 -11 -59 -11c-54 0 -82 32 -82 76c0 43 18 95 40 137v699h70v-700c-25 -46 -45 -81 -45 -124c0 -22 13 -31 34 -31z" />
    <glyph glyph-name="J" unicode="J" horiz-adv-x="530" 
d="M240 -12c-113 0 -220 67 -220 210v10h70v-10c0 -101 69 -142 150 -142s150 41 150 142v502h70v-502c0 -143 -107 -210 -220 -210z" />
    <glyph glyph-name="K" unicode="K" horiz-adv-x="580" 
d="M570 0h-92l-328 339v-339h-70v700h70v-320l318 320h92l-336 -340z" />
    <glyph glyph-name="Kcommaaccent" unicode="&#x136;" horiz-adv-x="580" 
d="M224 360l346 -360h-92l-328 339v-339h-70v700h70v-320l318 320h92zM265 -240l10 170h66l-30 -170h-46z" />
    <glyph glyph-name="L" unicode="L" horiz-adv-x="490" 
d="M150 66h320v-66h-390v700h70v-634z" />
    <glyph glyph-name="Lacute" unicode="&#x139;" horiz-adv-x="490" 
d="M242 900l-96 -130h-64l80 130h80zM150 66h320v-66h-390v700h70v-634z" />
    <glyph glyph-name="Lcaron" unicode="&#x13d;" horiz-adv-x="490" 
d="M150 66h320v-66h-390v700h70v-634zM332 700l-30 -170h-46l10 170h66z" />
    <glyph glyph-name="Lcommaaccent" unicode="&#x13b;" horiz-adv-x="490" 
d="M150 66h320v-66h-390v700h70v-634zM243 -240l10 170h66l-30 -170h-46z" />
    <glyph glyph-name="Lslash" unicode="&#x141;" horiz-adv-x="510" 
d="M170 66h320v-66h-390v248l-60 -39v63l60 39v389h70v-343l170 112v-63l-170 -112v-228z" />
    <glyph glyph-name="M" unicode="M" horiz-adv-x="800" 
d="M720 700v-700h-70v582l-215 -461h-70l-215 461v-582h-70v700h70h18l232 -500l232 500h88z" />
    <glyph glyph-name="N" unicode="N" 
d="M480 700h70v-700h-60l-340 560v-560h-70v700h60l340 -560v560z" />
    <glyph glyph-name="Nacute" unicode="&#x143;" 
d="M265 770h64l96 130h-80zM480 700h70v-700h-60l-340 560v-560h-70v700h60l340 -560v560z" />
    <glyph glyph-name="Ncaron" unicode="&#x147;" 
d="M276 770l-106 130h75l70 -87l70 87h75l-106 -130h-78zM480 700h70v-700h-60l-340 560v-560h-70v700h60l340 -560v560z" />
    <glyph glyph-name="Ncommaaccent" unicode="&#x145;" 
d="M480 700h70v-700h-60l-340 560v-560h-70v700h60l340 -560v560zM319 -240l30 170h-66l-10 -170h46z" />
    <glyph glyph-name="Eng" unicode="&#x14a;" 
d="M480 700h70v-700c0 -155 -97 -200 -210 -200v68c81 0 140 19 140 132v16l-330 544v-560h-70v700h60l340 -560v560z" />
    <glyph glyph-name="Ntilde" unicode="&#xd1;" 
d="M175 780c0 123 72 139 141 87c53 -40 81 -56 81 23h58c0 -123 -71 -139 -140 -87c-53 40 -82 56 -82 -23h-58zM480 700h70v-700h-60l-340 560v-560h-70v700h60l340 -560v560z" />
    <glyph glyph-name="O" unicode="O" horiz-adv-x="804" 
d="M402 -12c-204 0 -362 162 -362 362s158 362 362 362s362 -162 362 -362s-158 -362 -362 -362zM402 56c166 0 292 131 292 294s-126 294 -292 294s-292 -131 -292 -294s126 -294 292 -294z" />
    <glyph glyph-name="Oacute" unicode="&#xd3;" horiz-adv-x="804" 
d="M352 770h64l96 130h-80zM402 -12c-204 0 -362 162 -362 362s158 362 362 362s362 -162 362 -362s-158 -362 -362 -362zM402 56c166 0 292 131 292 294s-126 294 -292 294s-292 -131 -292 -294s126 -294 292 -294z" />
    <glyph glyph-name="Ocircumflex" unicode="&#xd4;" horiz-adv-x="804" 
d="M402 857l-70 -87h-75l106 130h74h4l106 -130h-75zM402 712c204 0 362 -162 362 -362s-158 -362 -362 -362s-362 162 -362 362s158 362 362 362zM402 56c166 0 292 131 292 294s-126 294 -292 294s-292 -131 -292 -294s126 -294 292 -294z" />
    <glyph glyph-name="Odieresis" unicode="&#xd6;" horiz-adv-x="804" 
d="M262 780v80h80v-80h-80zM462 780v80h80v-80h-80zM402 -12c-204 0 -362 162 -362 362s158 362 362 362s362 -162 362 -362s-158 -362 -362 -362zM402 56c166 0 292 131 292 294s-126 294 -292 294s-292 -131 -292 -294s126 -294 292 -294z" />
    <glyph glyph-name="Ograve" unicode="&#xd2;" horiz-adv-x="804" 
d="M442 770l-80 130h-80l96 -130h64zM402 -12c-204 0 -362 162 -362 362s158 362 362 362s362 -162 362 -362s-158 -362 -362 -362zM402 56c166 0 292 131 292 294s-126 294 -292 294s-292 -131 -292 -294s126 -294 292 -294z" />
    <glyph glyph-name="Ohungarumlaut" unicode="&#x150;" horiz-adv-x="804" 
d="M282 770h68l76 130h-74zM425 770h68l86 130h-74zM402 -12c-204 0 -362 162 -362 362s158 362 362 362s362 -162 362 -362s-158 -362 -362 -362zM402 56c166 0 292 131 292 294s-126 294 -292 294s-292 -131 -292 -294s126 -294 292 -294z" />
    <glyph glyph-name="Omacron" unicode="&#x14c;" horiz-adv-x="804" 
d="M272 780v58h260v-58h-260zM402 -12c-204 0 -362 162 -362 362s158 362 362 362s362 -162 362 -362s-158 -362 -362 -362zM402 56c166 0 292 131 292 294s-126 294 -292 294s-292 -131 -292 -294s126 -294 292 -294z" />
    <glyph glyph-name="Oslash" unicode="&#xd8;" horiz-adv-x="814" 
d="M667 609c66 -66 107 -158 107 -259c0 -200 -158 -362 -362 -362c-81 0 -155 25 -214 69l-48 -57h-70l77 91c-66 66 -107 158 -107 259c0 200 158 362 362 362c81 0 155 -25 214 -69l48 57h70zM120 350c0 -81 31 -153 82 -206l380 447c-48 33 -106 53 -170 53
c-166 0 -292 -131 -292 -294zM412 56c166 0 292 131 292 294c0 81 -31 153 -82 206l-380 -447c48 -33 106 -53 170 -53z" />
    <glyph glyph-name="Otilde" unicode="&#xd5;" horiz-adv-x="804" 
d="M262 780c0 123 72 139 141 87c53 -40 81 -56 81 23h58c0 -123 -71 -139 -140 -87c-53 40 -82 56 -82 -23h-58zM402 -12c-204 0 -362 162 -362 362s158 362 362 362s362 -162 362 -362s-158 -362 -362 -362zM402 56c166 0 292 131 292 294s-126 294 -292 294
s-292 -131 -292 -294s126 -294 292 -294z" />
    <glyph glyph-name="OE" unicode="&#x152;" horiz-adv-x="915" 
d="M555 66h320v-66h-360h-30c-29 -8 -61 -12 -93 -12c-204 0 -352 162 -352 362s148 362 352 362c32 0 64 -4 93 -12h70h315v-66h-315v-248h300v-66h-300v-254zM485 71v558c-29 10 -60 15 -93 15c-166 0 -282 -131 -282 -294s116 -294 282 -294c33 0 64 5 93 15z" />
    <glyph glyph-name="P" unicode="P" horiz-adv-x="580" 
d="M330 700c116 0 210 -94 210 -210c0 -115 -94 -210 -210 -210h-180v-280h-70v700h70h180zM330 346c77 0 140 65 140 144c0 80 -63 144 -140 144h-180v-288h180z" />
    <glyph glyph-name="Thorn" unicode="&#xde;" horiz-adv-x="580" 
d="M330 560c116 0 210 -94 210 -210c0 -115 -94 -210 -210 -210h-180v-140h-70v700h70v-140h180zM330 206c77 0 140 65 140 144c0 80 -63 144 -140 144h-180v-288h180z" />
    <glyph glyph-name="Q" unicode="Q" horiz-adv-x="809" 
d="M764 350c0 -99 -40 -189 -104 -254l93 -106l-50 -40l-92 104c-59 -41 -131 -66 -209 -66c-200 0 -362 162 -362 362s162 362 362 362s362 -162 362 -362zM402 56c61 0 117 18 164 50l-100 113l50 40l98 -111c50 52 80 123 80 202c0 163 -130 294 -292 294
s-292 -131 -292 -294s130 -294 292 -294z" />
    <glyph glyph-name="R" unicode="R" 
d="M552 0l-246 280h-156v-280h-70v700h70h180c116 0 210 -94 210 -210c0 -96 -65 -178 -154 -202l254 -288h-88zM150 634v-288h180c77 0 140 65 140 144c0 80 -63 144 -140 144h-180z" />
    <glyph glyph-name="Racute" unicode="&#x154;" 
d="M390 900l-96 -130h-64l80 130h80zM552 0l-246 280h-156v-280h-70v700h70h180c116 0 210 -94 210 -210c0 -96 -65 -178 -154 -202l254 -288h-88zM150 634v-288h180c77 0 140 65 140 144c0 80 -63 144 -140 144h-180z" />
    <glyph glyph-name="Rcaron" unicode="&#x158;" 
d="M241 770l-106 130h75l70 -87l70 87h75l-106 -130h-78zM552 0l-246 280h-156v-280h-70v700h70h180c116 0 210 -94 210 -210c0 -96 -65 -178 -154 -202l254 -288h-88zM150 634v-288h180c77 0 140 65 140 144c0 80 -63 144 -140 144h-180z" />
    <glyph glyph-name="Rcommaaccent" unicode="&#x156;" 
d="M386 288l254 -288h-88l-246 280h-156v-280h-70v700h70h180c116 0 210 -94 210 -210c0 -96 -65 -178 -154 -202zM150 634v-288h180c77 0 140 65 140 144c0 80 -63 144 -140 144h-180zM308 -240l10 170h66l-30 -170h-46z" />
    <glyph glyph-name="S" unicode="S" horiz-adv-x="550" 
d="M285 -12c-133 0 -245 77 -245 215h70c0 -96 74 -147 175 -147c86 0 155 46 155 121c0 76 -74 109 -157 140c-106 40 -223 76 -223 212c0 116 102 183 211 183c117 0 219 -72 219 -200h-70c0 86 -64 132 -149 132c-77 0 -141 -41 -141 -115c0 -80 70 -111 154 -143
c106 -41 226 -80 226 -209c0 -117 -107 -189 -225 -189z" />
    <glyph glyph-name="Sacute" unicode="&#x15a;" horiz-adv-x="550" 
d="M221 770h64l96 130h-80zM285 -12c-133 0 -245 77 -245 215h70c0 -96 74 -147 175 -147c86 0 155 46 155 121c0 76 -74 109 -157 140c-106 40 -223 76 -223 212c0 116 102 183 211 183c117 0 219 -72 219 -200h-70c0 86 -64 132 -149 132c-77 0 -141 -41 -141 -115
c0 -80 70 -111 154 -143c106 -41 226 -80 226 -209c0 -117 -107 -189 -225 -189z" />
    <glyph glyph-name="Scaron" unicode="&#x160;" horiz-adv-x="550" 
d="M232 770l-106 130h75l70 -87l70 87h75l-106 -130h-78zM284 386c106 -41 226 -80 226 -209c0 -117 -107 -189 -225 -189c-133 0 -245 77 -245 215h70c0 -96 74 -147 175 -147c86 0 155 46 155 121c0 76 -74 109 -157 140c-106 40 -223 76 -223 212c0 116 102 183 211 183
c117 0 219 -72 219 -200h-70c0 86 -64 132 -149 132c-77 0 -141 -41 -141 -115c0 -80 70 -111 154 -143z" />
    <glyph glyph-name="Scedilla" unicode="&#x15e;" horiz-adv-x="550" 
d="M510 177c0 -110 -95 -180 -204 -188v-34c57 -10 93 -40 93 -81c0 -50 -37 -100 -205 -90v54c98 -8 147 7 147 36c0 28 -35 39 -93 41v75c-116 13 -208 88 -208 213h70c0 -96 74 -147 175 -147c86 0 155 46 155 121c0 76 -74 109 -157 140c-106 40 -223 76 -223 212
c0 116 102 183 211 183c117 0 219 -72 219 -200h-70c0 86 -64 132 -149 132c-77 0 -141 -41 -141 -115c0 -80 70 -111 154 -143c106 -41 226 -80 226 -209z" />
    <glyph glyph-name="Scommaaccent" unicode="&#x218;" horiz-adv-x="550" 
d="M285 -12c-133 0 -245 77 -245 215h70c0 -96 74 -147 175 -147c86 0 155 46 155 121c0 76 -74 109 -157 140c-106 40 -223 76 -223 212c0 116 102 183 211 183c117 0 219 -72 219 -200h-70c0 86 -64 132 -149 132c-77 0 -141 -41 -141 -115c0 -80 70 -111 154 -143
c106 -41 226 -80 226 -209c0 -117 -107 -189 -225 -189zM298 -240l30 170h-66l-10 -170h46z" />
    <glyph glyph-name="T" unicode="T" horiz-adv-x="500" 
d="M480 700v-66h-195v-634h-70v634h-195v66h265h195z" />
    <glyph glyph-name="Tbar" unicode="&#x166;" horiz-adv-x="500" 
d="M480 634h-195v-252h145v-64h-145v-318h-70v318h-145v64h145v252h-195v66h265h195v-66z" />
    <glyph glyph-name="Tcaron" unicode="&#x164;" horiz-adv-x="500" 
d="M211 770l-106 130h75l70 -87l70 87h75l-106 -130h-78zM480 700v-66h-195v-634h-70v634h-195v66h265h195z" />
    <glyph glyph-name="uni0162" unicode="&#x162;" horiz-adv-x="500" 
d="M480 700v-66h-195v-634h-70v634h-195v66h265h195zM208 -240l10 170h66l-30 -170h-46z" />
    <glyph glyph-name="uni021A" unicode="&#x21a;" horiz-adv-x="500" 
d="M480 700v-66h-195v-634h-70v634h-195v66h265h195zM208 -240l10 170h66l-30 -170h-46z" />
    <glyph glyph-name="U" unicode="U" horiz-adv-x="620" 
d="M310 -12c-133 0 -240 77 -240 220v492h70v-492c0 -101 69 -152 170 -152s170 51 170 152v492h70v-492c0 -143 -107 -220 -240 -220z" />
    <glyph glyph-name="Uacute" unicode="&#xda;" horiz-adv-x="620" 
d="M260 770h64l96 130h-80zM310 -12c-133 0 -240 77 -240 220v492h70v-492c0 -101 69 -152 170 -152s170 51 170 152v492h70v-492c0 -143 -107 -220 -240 -220z" />
    <glyph glyph-name="Ucircumflex" unicode="&#xdb;" horiz-adv-x="620" 
d="M310 857l-70 -87h-75l106 130h74h4l106 -130h-75zM480 700h70v-492c0 -143 -107 -220 -240 -220s-240 77 -240 220v492h70v-492c0 -101 69 -152 170 -152s170 51 170 152v492z" />
    <glyph glyph-name="Udieresis" unicode="&#xdc;" horiz-adv-x="620" 
d="M170 780v80h80v-80h-80zM370 780v80h80v-80h-80zM310 -12c-133 0 -240 77 -240 220v492h70v-492c0 -101 69 -152 170 -152s170 51 170 152v492h70v-492c0 -143 -107 -220 -240 -220z" />
    <glyph glyph-name="Ugrave" unicode="&#xd9;" horiz-adv-x="620" 
d="M350 770l-80 130h-80l96 -130h64zM310 -12c-133 0 -240 77 -240 220v492h70v-492c0 -101 69 -152 170 -152s170 51 170 152v492h70v-492c0 -143 -107 -220 -240 -220z" />
    <glyph glyph-name="Uhungarumlaut" unicode="&#x170;" horiz-adv-x="620" 
d="M190 770h68l76 130h-74zM333 770h68l86 130h-74zM310 -12c-133 0 -240 77 -240 220v492h70v-492c0 -101 69 -152 170 -152s170 51 170 152v492h70v-492c0 -143 -107 -220 -240 -220z" />
    <glyph glyph-name="Umacron" unicode="&#x16a;" horiz-adv-x="620" 
d="M180 780v58h260v-58h-260zM310 -12c-133 0 -240 77 -240 220v492h70v-492c0 -101 69 -152 170 -152s170 51 170 152v492h70v-492c0 -143 -107 -220 -240 -220z" />
    <glyph glyph-name="Uogonek" unicode="&#x172;" horiz-adv-x="620" 
d="M480 700h70v-492c0 -73 -28 -129 -73 -166c-85 -78 -121 -121 -121 -166c0 -22 13 -31 34 -31c15 0 28 3 42 9v-55c-17 -7 -36 -11 -59 -11c-54 0 -82 32 -82 76c0 37 22 84 63 127c-14 -2 -29 -3 -44 -3c-133 0 -240 77 -240 220v492h70v-492c0 -101 69 -152 170 -152
s170 51 170 152v492z" />
    <glyph glyph-name="Uring" unicode="&#x16e;" horiz-adv-x="620" 
d="M310 750c-63 0 -106 43 -106 100s43 100 106 100c64 0 106 -43 106 -100s-42 -100 -106 -100zM310 801c34 0 52 21 52 49s-18 49 -52 49c-33 0 -51 -21 -51 -49s18 -49 51 -49zM310 -12c-133 0 -240 77 -240 220v492h70v-492c0 -101 69 -152 170 -152s170 51 170 152v492
h70v-492c0 -143 -107 -220 -240 -220z" />
    <glyph glyph-name="V" unicode="V" horiz-adv-x="608" 
d="M268 0l-258 700h74l220 -613l220 613h74l-258 -700h-72z" />
    <glyph glyph-name="W" unicode="W" horiz-adv-x="860" 
d="M782 700h68l-218 -700h-92l-110 354l-110 -354h-92l-218 700h68l196 -629l122 391l-74 238h68l196 -629z" />
    <glyph glyph-name="Wacute" unicode="&#x1e82;" horiz-adv-x="860" 
d="M540 900l-96 -130h-64l80 130h80zM782 700h68l-218 -700h-92l-110 354l-110 -354h-92l-218 700h68l196 -629l122 391l-74 238h68l196 -629z" />
    <glyph glyph-name="Wcircumflex" unicode="&#x174;" horiz-adv-x="860" 
d="M430 857l-70 -87h-75l106 130h74h4l106 -130h-75zM782 700h68l-218 -700h-92l-110 354l-110 -354h-92l-218 700h68l196 -629l122 391l-74 238h68l196 -629z" />
    <glyph glyph-name="Wdieresis" unicode="&#x1e84;" horiz-adv-x="860" 
d="M370 860v-80h-80v80h80zM570 860v-80h-80v80h80zM782 700h68l-218 -700h-92l-110 354l-110 -354h-92l-218 700h68l196 -629l122 391l-74 238h68l196 -629z" />
    <glyph glyph-name="Wgrave" unicode="&#x1e80;" horiz-adv-x="860" 
d="M470 770h-64l-96 130h80zM782 700h68l-218 -700h-92l-110 354l-110 -354h-92l-218 700h68l196 -629l122 391l-74 238h68l196 -629z" />
    <glyph glyph-name="X" unicode="X" horiz-adv-x="570" 
d="M550 0h-77l-188 300l-188 -300h-77l227 362l-212 338h77l173 -276l173 276h77l-211 -338z" />
    <glyph glyph-name="Y" unicode="Y" horiz-adv-x="575" 
d="M565 700l-243 -374v-326h-70v328l-242 372h79l199 -305l198 305h79z" />
    <glyph glyph-name="Yacute" unicode="&#xdd;" horiz-adv-x="575" 
d="M394 900l-96 -130h-64l80 130h80zM565 700l-243 -374v-326h-70v328l-242 372h79l199 -305l198 305h79z" />
    <glyph glyph-name="Ycircumflex" unicode="&#x176;" horiz-adv-x="575" 
d="M284 857l-70 -87h-75l106 130h74h4l106 -130h-75zM565 700l-243 -374v-326h-70v328l-242 372h79l199 -305l198 305h79z" />
    <glyph glyph-name="Ydieresis" unicode="&#x178;" horiz-adv-x="575" 
d="M224 860v-80h-80v80h80zM424 860v-80h-80v80h80zM565 700l-243 -374v-326h-70v328l-242 372h79l199 -305l198 305h79z" />
    <glyph glyph-name="Ygrave" unicode="&#x1ef2;" horiz-adv-x="575" 
d="M324 770h-64l-96 130h80zM565 700l-243 -374v-326h-70v328l-242 372h79l199 -305l198 305h79z" />
    <glyph glyph-name="Z" unicode="Z" horiz-adv-x="520" 
d="M118 66h372v-66h-450v66l362 568h-352v66h430v-66z" />
    <glyph glyph-name="Zacute" unicode="&#x179;" horiz-adv-x="520" 
d="M375 900l-96 -130h-64l80 130h80zM118 66h372v-66h-450v66l362 568h-352v66h430v-66z" />
    <glyph glyph-name="Zcaron" unicode="&#x17d;" horiz-adv-x="520" 
d="M226 770l-106 130h75l70 -87l70 87h75l-106 -130h-78zM118 66h372v-66h-450v66l362 568h-352v66h430v-66z" />
    <glyph glyph-name="Zdotaccent" unicode="&#x17b;" horiz-adv-x="520" 
d="M310 870v-90h-90v90h90zM118 66h372v-66h-450v66l362 568h-352v66h430v-66z" />
    <glyph glyph-name="a" unicode="a" horiz-adv-x="498" 
d="M250 512c112 0 190 -71 190 -187v-325h-66v56c-34 -48 -91 -68 -155 -68c-92 0 -179 53 -179 161s87 161 179 161c64 0 121 -22 155 -65v80c0 90 -60 123 -124 123s-124 -33 -124 -103h-66c0 96 78 167 190 167zM235 50c80 0 139 42 139 99c0 61 -59 99 -139 99
c-89 0 -129 -42 -129 -99s40 -99 129 -99z" />
    <glyph glyph-name="aacute" unicode="&#xe1;" horiz-adv-x="498" 
d="M362 700l-96 -130h-64l80 130h80zM250 512c112 0 190 -71 190 -187v-325h-66v56c-34 -48 -91 -68 -155 -68c-92 0 -179 53 -179 161s87 161 179 161c64 0 121 -22 155 -65v80c0 90 -60 123 -124 123s-124 -33 -124 -103h-66c0 96 78 167 190 167zM235 50
c80 0 139 42 139 99c0 61 -59 99 -139 99c-89 0 -129 -42 -129 -99s40 -99 129 -99z" />
    <glyph glyph-name="abreve" unicode="&#x103;" horiz-adv-x="498" 
d="M252 562c-84 0 -140 47 -140 130h64c0 -52 27 -72 76 -72s76 20 76 72h64c0 -83 -54 -130 -140 -130zM250 512c112 0 190 -71 190 -187v-325h-66v56c-34 -48 -91 -68 -155 -68c-92 0 -179 53 -179 161s87 161 179 161c64 0 121 -22 155 -65v80c0 90 -60 123 -124 123
s-124 -33 -124 -103h-66c0 96 78 167 190 167zM235 50c80 0 139 42 139 99c0 61 -59 99 -139 99c-89 0 -129 -42 -129 -99s40 -99 129 -99z" />
    <glyph glyph-name="acircumflex" unicode="&#xe2;" horiz-adv-x="498" 
d="M252 657l-70 -87h-75l106 130h74h4l106 -130h-75zM250 512c112 0 190 -71 190 -187v-325h-66v56c-34 -48 -91 -68 -155 -68c-92 0 -179 53 -179 161s87 161 179 161c64 0 121 -22 155 -65v80c0 90 -60 123 -124 123s-124 -33 -124 -103h-66c0 96 78 167 190 167zM235 50
c80 0 139 42 139 99c0 61 -59 99 -139 99c-89 0 -129 -42 -129 -99s40 -99 129 -99z" />
    <glyph glyph-name="adieresis" unicode="&#xe4;" horiz-adv-x="498" 
d="M192 660v-80h-80v80h80zM392 660v-80h-80v80h80zM250 512c112 0 190 -71 190 -187v-325h-66v56c-34 -48 -91 -68 -155 -68c-92 0 -179 53 -179 161s87 161 179 161c64 0 121 -22 155 -65v80c0 90 -60 123 -124 123s-124 -33 -124 -103h-66c0 96 78 167 190 167zM235 50
c80 0 139 42 139 99c0 61 -59 99 -139 99c-89 0 -129 -42 -129 -99s40 -99 129 -99z" />
    <glyph glyph-name="agrave" unicode="&#xe0;" horiz-adv-x="498" 
d="M292 570h-64l-96 130h80zM250 512c112 0 190 -71 190 -187v-325h-66v56c-34 -48 -91 -68 -155 -68c-92 0 -179 53 -179 161s87 161 179 161c64 0 121 -22 155 -65v80c0 90 -60 123 -124 123s-124 -33 -124 -103h-66c0 96 78 167 190 167zM235 50c80 0 139 42 139 99
c0 61 -59 99 -139 99c-89 0 -129 -42 -129 -99s40 -99 129 -99z" />
    <glyph glyph-name="amacron" unicode="&#x101;" horiz-adv-x="498" 
d="M382 638v-58h-260v58h260zM250 512c112 0 190 -71 190 -187v-325h-66v56c-34 -48 -91 -68 -155 -68c-92 0 -179 53 -179 161s87 161 179 161c64 0 121 -22 155 -65v80c0 90 -60 123 -124 123s-124 -33 -124 -103h-66c0 96 78 167 190 167zM235 50c80 0 139 42 139 99
c0 61 -59 99 -139 99c-89 0 -129 -42 -129 -99s40 -99 129 -99z" />
    <glyph glyph-name="aogonek" unicode="&#x105;" horiz-adv-x="498" 
d="M440 0c-46 -42 -76 -91 -76 -124c0 -22 13 -31 34 -31c15 0 28 3 42 9v-55c-17 -7 -36 -11 -59 -11c-54 0 -82 32 -82 76c0 38 23 90 75 148v44c-34 -48 -91 -68 -155 -68c-92 0 -179 53 -179 161s87 161 179 161c64 0 121 -22 155 -65v80c0 90 -60 123 -124 123
s-124 -33 -124 -103h-66c0 96 78 167 190 167s190 -71 190 -187v-325zM235 50c80 0 139 42 139 99c0 61 -59 99 -139 99c-89 0 -129 -42 -129 -99s40 -99 129 -99z" />
    <glyph glyph-name="aring" unicode="&#xe5;" horiz-adv-x="498" 
d="M252 550c-63 0 -106 43 -106 100s43 100 106 100c64 0 106 -43 106 -100s-42 -100 -106 -100zM252 699c-33 0 -51 -21 -51 -49s18 -49 51 -49c34 0 52 21 52 49s-18 49 -52 49zM250 512c112 0 190 -71 190 -187v-325h-66v56c-34 -48 -91 -68 -155 -68
c-92 0 -179 53 -179 161s87 161 179 161c64 0 121 -22 155 -65v80c0 90 -60 123 -124 123s-124 -33 -124 -103h-66c0 96 78 167 190 167zM235 50c80 0 139 42 139 99c0 61 -59 99 -139 99c-89 0 -129 -42 -129 -99s40 -99 129 -99z" />
    <glyph glyph-name="atilde" unicode="&#xe3;" horiz-adv-x="498" 
d="M252 603c-53 40 -82 56 -82 -23h-58c0 123 72 139 141 87c53 -40 81 -56 81 23h58c0 -123 -71 -139 -140 -87zM250 512c112 0 190 -71 190 -187v-325h-66v56c-34 -48 -91 -68 -155 -68c-92 0 -179 53 -179 161s87 161 179 161c64 0 121 -22 155 -65v80
c0 90 -60 123 -124 123s-124 -33 -124 -103h-66c0 96 78 167 190 167zM235 50c80 0 139 42 139 99c0 61 -59 99 -139 99c-89 0 -129 -42 -129 -99s40 -99 129 -99z" />
    <glyph glyph-name="ae" unicode="&#xe6;" horiz-adv-x="840" 
d="M598 512c145 0 212 -127 212 -264c0 -10 -1 -21 -2 -31h-66h-301c10 -102 64 -165 158 -165c67 0 109 37 120 85h73c-17 -87 -90 -149 -194 -149c-86 0 -146 39 -181 102c-28 -65 -97 -102 -183 -102c-104 0 -194 53 -194 161s87 161 179 161c64 0 121 -22 155 -55v70
c0 90 -60 123 -124 123s-124 -33 -124 -103h-66c0 96 78 167 185 167c81 0 145 -37 175 -102c36 63 96 102 178 102zM441 281h302c-7 110 -66 167 -143 167c-101 0 -150 -69 -159 -167zM238 50c85 0 136 42 136 99c0 61 -59 99 -139 99c-89 0 -129 -42 -129 -99
s47 -99 132 -99z" />
    <glyph glyph-name="b" unicode="b" horiz-adv-x="636" 
d="M338 512c141 0 258 -114 258 -262s-117 -262 -258 -262c-89 0 -160 43 -202 110v-98h-66v700h66v-298c42 67 113 110 202 110zM333 52c111 0 197 87 197 198s-86 198 -197 198s-197 -87 -197 -198s86 -198 197 -198z" />
    <glyph glyph-name="c" unicode="c" horiz-adv-x="573" 
d="M543 160c-28 -102 -125 -172 -240 -172c-151 0 -263 114 -263 262s112 262 263 262c115 0 211 -70 240 -172h-70c-26 65 -92 108 -170 108c-111 0 -197 -87 -197 -198s86 -198 197 -198c79 0 145 44 170 108h70z" />
    <glyph glyph-name="cacute" unicode="&#x107;" horiz-adv-x="573" 
d="M242 570h64l96 130h-80zM543 160c-28 -102 -125 -172 -240 -172c-151 0 -263 114 -263 262s112 262 263 262c115 0 211 -70 240 -172h-70c-26 65 -92 108 -170 108c-111 0 -197 -87 -197 -198s86 -198 197 -198c79 0 145 44 170 108h70z" />
    <glyph glyph-name="ccaron" unicode="&#x10d;" horiz-adv-x="573" 
d="M253 570l-106 130h75l70 -87l70 87h75l-106 -130h-78zM303 52c79 0 145 44 170 108h70c-28 -102 -125 -172 -240 -172c-151 0 -263 114 -263 262s112 262 263 262c115 0 211 -70 240 -172h-70c-26 65 -92 108 -170 108c-111 0 -197 -87 -197 -198s86 -198 197 -198z" />
    <glyph glyph-name="ccedilla" unicode="&#xe7;" horiz-adv-x="573" 
d="M303 52c79 0 145 44 170 108h70c-26 -94 -111 -161 -214 -171v-34c57 -10 93 -40 93 -81c0 -50 -37 -100 -205 -90v54c98 -8 147 7 147 36c0 28 -35 39 -93 41v75c-135 15 -231 123 -231 260c0 148 112 262 263 262c115 0 211 -70 240 -172h-70c-26 65 -92 108 -170 108
c-111 0 -197 -87 -197 -198s86 -198 197 -198z" />
    <glyph glyph-name="cdotaccent" unicode="&#x10b;" horiz-adv-x="573" 
d="M247 580v90h90v-90h-90zM543 160c-28 -102 -125 -172 -240 -172c-151 0 -263 114 -263 262s112 262 263 262c115 0 211 -70 240 -172h-70c-26 65 -92 108 -170 108c-111 0 -197 -87 -197 -198s86 -198 197 -198c79 0 145 44 170 108h70z" />
    <glyph glyph-name="d" unicode="d" horiz-adv-x="636" 
d="M500 700h66v-700h-66v98c-42 -67 -113 -110 -202 -110c-141 0 -258 114 -258 262s117 262 258 262c89 0 160 -43 202 -110v298zM303 52c111 0 197 87 197 198s-86 198 -197 198s-197 -87 -197 -198s86 -198 197 -198z" />
    <glyph glyph-name="eth" unicode="&#xf0;" horiz-adv-x="586" 
d="M500 370c28 -38 46 -85 46 -140c0 -148 -119 -242 -253 -242s-253 94 -253 242c0 143 117 236 243 236c31 0 57 -6 80 -16l-89 119l-112 -69v60l82 50l-67 90h77l43 -57l112 69v-60l-82 -50zM293 52c99 0 187 67 187 178c0 41 -9 75 -30 103c-24 32 -68 71 -155 71
c-107 0 -189 -68 -189 -174c0 -111 88 -178 187 -178z" />
    <glyph glyph-name="dcaron" unicode="&#x10f;" horiz-adv-x="702" 
d="M500 402v298h66v-700h-66v98c-42 -67 -113 -110 -202 -110c-141 0 -258 114 -258 262s117 262 258 262c89 0 160 -43 202 -110zM646 700h66l-30 -170h-46zM303 52c111 0 197 87 197 198s-86 198 -197 198s-197 -87 -197 -198s86 -198 197 -198z" />
    <glyph glyph-name="dcroat" unicode="&#x111;" horiz-adv-x="646" 
d="M636 630v-54h-70v-576h-66v98c-42 -67 -113 -110 -202 -110c-141 0 -258 114 -258 262s117 262 258 262c89 0 160 -43 202 -110v174h-184v54h184v70h66v-70h70zM303 52c111 0 197 87 197 198s-86 198 -197 198s-197 -87 -197 -198s86 -198 197 -198z" />
    <glyph glyph-name="e" unicode="e" horiz-adv-x="569" 
d="M296 512c153 0 243 -127 243 -264c0 -10 -1 -21 -2 -31h-66h-363c13 -102 88 -165 189 -165c74 0 129 37 151 85h73c-28 -87 -114 -149 -225 -149c-153 0 -256 111 -256 262c0 147 101 262 256 262zM296 448c-105 0 -176 -69 -188 -167h363c-12 110 -89 167 -175 167z
" />
    <glyph glyph-name="eacute" unicode="&#xe9;" horiz-adv-x="569" 
d="M405 700l-96 -130h-64l80 130h80zM296 512c153 0 243 -127 243 -264c0 -10 -1 -21 -2 -31h-66h-363c13 -102 88 -165 189 -165c74 0 129 37 151 85h73c-28 -87 -114 -149 -225 -149c-153 0 -256 111 -256 262c0 147 101 262 256 262zM296 448c-105 0 -176 -69 -188 -167
h363c-12 110 -89 167 -175 167z" />
    <glyph glyph-name="ecaron" unicode="&#x11b;" horiz-adv-x="569" 
d="M256 570l-106 130h75l70 -87l70 87h75l-106 -130h-78zM296 512c153 0 243 -127 243 -264c0 -10 -1 -21 -2 -31h-66h-363c13 -102 88 -165 189 -165c74 0 129 37 151 85h73c-28 -87 -114 -149 -225 -149c-153 0 -256 111 -256 262c0 147 101 262 256 262zM296 448
c-105 0 -176 -69 -188 -167h363c-12 110 -89 167 -175 167z" />
    <glyph glyph-name="ecircumflex" unicode="&#xea;" horiz-adv-x="569" 
d="M295 657l-70 -87h-75l106 130h74h4l106 -130h-75zM296 512c153 0 243 -127 243 -264c0 -10 -1 -21 -2 -31h-66h-363c13 -102 88 -165 189 -165c74 0 129 37 151 85h73c-28 -87 -114 -149 -225 -149c-153 0 -256 111 -256 262c0 147 101 262 256 262zM296 448
c-105 0 -176 -69 -188 -167h363c-12 110 -89 167 -175 167z" />
    <glyph glyph-name="edieresis" unicode="&#xeb;" horiz-adv-x="569" 
d="M235 660v-80h-80v80h80zM435 660v-80h-80v80h80zM296 512c153 0 243 -127 243 -264c0 -10 -1 -21 -2 -31h-66h-363c13 -102 88 -165 189 -165c74 0 129 37 151 85h73c-28 -87 -114 -149 -225 -149c-153 0 -256 111 -256 262c0 147 101 262 256 262zM296 448
c-105 0 -176 -69 -188 -167h363c-12 110 -89 167 -175 167z" />
    <glyph glyph-name="edotaccent" unicode="&#x117;" horiz-adv-x="569" 
d="M340 670v-90h-90v90h90zM296 512c153 0 243 -127 243 -264c0 -10 -1 -21 -2 -31h-66h-363c13 -102 88 -165 189 -165c74 0 129 37 151 85h73c-28 -87 -114 -149 -225 -149c-153 0 -256 111 -256 262c0 147 101 262 256 262zM296 448c-105 0 -176 -69 -188 -167h363
c-12 110 -89 167 -175 167z" />
    <glyph glyph-name="egrave" unicode="&#xe8;" horiz-adv-x="569" 
d="M335 570h-64l-96 130h80zM296 512c153 0 243 -127 243 -264c0 -10 -1 -21 -2 -31h-66h-363c13 -102 88 -165 189 -165c74 0 129 37 151 85h73c-28 -87 -114 -149 -225 -149c-153 0 -256 111 -256 262c0 147 101 262 256 262zM296 448c-105 0 -176 -69 -188 -167h363
c-12 110 -89 167 -175 167z" />
    <glyph glyph-name="emacron" unicode="&#x113;" horiz-adv-x="569" 
d="M425 638v-58h-260v58h260zM296 512c153 0 243 -127 243 -264c0 -10 -1 -21 -2 -31h-66h-363c13 -102 88 -165 189 -165c74 0 129 37 151 85h73c-28 -87 -114 -149 -225 -149c-153 0 -256 111 -256 262c0 147 101 262 256 262zM296 448c-105 0 -176 -69 -188 -167h363
c-12 110 -89 167 -175 167z" />
    <glyph glyph-name="eogonek" unicode="&#x119;" horiz-adv-x="569" 
d="M296 512c153 0 243 -127 243 -264c0 -10 -1 -21 -2 -31h-66h-363c13 -102 88 -165 189 -165c74 0 129 37 151 85h73c-13 -40 -38 -75 -72 -101c-74 -83 -99 -130 -99 -160c0 -22 13 -31 34 -31c15 0 28 3 42 9v-55c-17 -7 -36 -11 -59 -11c-54 0 -82 32 -82 76
c0 34 18 81 63 129c-17 -3 -34 -5 -52 -5c-153 0 -256 111 -256 262c0 147 101 262 256 262zM296 448c-105 0 -176 -69 -188 -167h363c-12 110 -89 167 -175 167z" />
    <glyph glyph-name="f" unicode="f" horiz-adv-x="315" 
d="M315 648c-97 8 -144 -32 -144 -128v-20h144v-64h-144v-436h-66v436h-85v64h85v20c0 130 75 202 210 192v-64z" />
    <glyph glyph-name="g" unicode="g" horiz-adv-x="636" 
d="M500 500h66v-480c0 -152 -117 -232 -251 -232c-122 0 -239 81 -239 187h66c0 -52 64 -123 173 -123c121 0 185 66 185 168v78c-42 -67 -113 -110 -202 -110c-141 0 -258 114 -258 262s117 262 258 262c89 0 160 -43 202 -110v98zM303 52c111 0 197 87 197 198
s-86 198 -197 198s-197 -87 -197 -198s86 -198 197 -198z" />
    <glyph glyph-name="gbreve" unicode="&#x11f;" horiz-adv-x="636" 
d="M308 562c-84 0 -140 47 -140 130h64c0 -52 27 -72 76 -72s76 20 76 72h64c0 -83 -54 -130 -140 -130zM500 500h66v-480c0 -152 -117 -232 -251 -232c-122 0 -239 81 -239 187h66c0 -52 64 -123 173 -123c121 0 185 66 185 168v78c-42 -67 -113 -110 -202 -110
c-141 0 -258 114 -258 262s117 262 258 262c89 0 160 -43 202 -110v98zM303 52c111 0 197 87 197 198s-86 198 -197 198s-197 -87 -197 -198s86 -198 197 -198z" />
    <glyph glyph-name="gcommaaccent" unicode="&#x123;" horiz-adv-x="636" 
d="M345 760l-10 -170h-66l30 170h46zM500 500h66v-480c0 -152 -117 -232 -251 -232c-122 0 -239 81 -239 187h66c0 -52 64 -123 173 -123c121 0 185 66 185 168v78c-42 -67 -113 -110 -202 -110c-141 0 -258 114 -258 262s117 262 258 262c89 0 160 -43 202 -110v98zM303 52
c111 0 197 87 197 198s-86 198 -197 198s-197 -87 -197 -198s86 -198 197 -198z" />
    <glyph glyph-name="gdotaccent" unicode="&#x121;" horiz-adv-x="636" 
d="M353 670v-90h-90v90h90zM500 500h66v-480c0 -152 -117 -232 -251 -232c-122 0 -239 81 -239 187h66c0 -52 64 -123 173 -123c121 0 185 66 185 168v78c-42 -67 -113 -110 -202 -110c-141 0 -258 114 -258 262s117 262 258 262c89 0 160 -43 202 -110v98zM303 52
c111 0 197 87 197 198s-86 198 -197 198s-197 -87 -197 -198s86 -198 197 -198z" />
    <glyph glyph-name="h" unicode="h" horiz-adv-x="518" 
d="M290 512c93 0 170 -70 170 -185v-327h-66v327c0 79 -49 121 -116 121c-68 0 -142 -42 -142 -166v-282h-66v700h66v-266c39 59 94 78 154 78z" />
    <glyph glyph-name="hbar" unicode="&#x127;" horiz-adv-x="528" 
d="M300 512c93 0 170 -70 170 -185v-327h-66v327c0 79 -49 121 -116 121c-68 0 -142 -42 -142 -166v-282h-66v576h-70v54h70v70h66v-70h144v-54h-144v-142c39 59 94 78 154 78z" />
    <glyph glyph-name="i" unicode="i" horiz-adv-x="206" 
d="M70 600v100h66v-100h-66zM70 0v500h66v-500h-66z" />
    <glyph glyph-name="dotlessi" unicode="&#x131;" horiz-adv-x="206" 
d="M70 0v500h66v-500h-66z" />
    <glyph glyph-name="iacute" unicode="&#xed;" horiz-adv-x="206" 
d="M73 570h64l66 130h-80zM70 0v500h66v-500h-66z" />
    <glyph glyph-name="icircumflex" unicode="&#xee;" horiz-adv-x="206" 
d="M142 700l86 -130h-75l-50 76l-50 -76h-75l86 130h74h4zM70 0v500h66v-500h-66z" />
    <glyph glyph-name="idieresis" unicode="&#xef;" horiz-adv-x="206" 
d="M-7 580v80h80v-80h-80zM133 580v80h80v-80h-80zM70 0v500h66v-500h-66z" />
    <glyph glyph-name="i.loclTRK" horiz-adv-x="206" 
d="M58 580v90h90v-90h-90zM70 0v500h66v-500h-66z" />
    <glyph glyph-name="igrave" unicode="&#xec;" horiz-adv-x="206" 
d="M134 570l-50 130h-80l66 -130h64zM136 0h-66v500h66v-500z" />
    <glyph glyph-name="imacron" unicode="&#x12b;" horiz-adv-x="206" 
d="M3 580v58h200v-58h-200zM70 0v500h66v-500h-66z" />
    <glyph glyph-name="iogonek" unicode="&#x12f;" horiz-adv-x="206" 
d="M136 700v-100h-66v100h66zM129 -155c15 0 28 3 42 9v-55c-17 -7 -36 -11 -59 -11c-54 0 -82 42 -82 86c0 34 7 69 40 131v495h66v-500c-26 -42 -41 -81 -41 -114c0 -22 13 -41 34 -41z" />
    <glyph glyph-name="j" unicode="j" horiz-adv-x="230" 
d="M94 700h66v-100h-66v100zM94 -40v540h66v-540c0 -120 -65 -182 -180 -172v64c77 -8 114 22 114 108z" />
    <glyph glyph-name="k" unicode="k" horiz-adv-x="494" 
d="M474 0h-88l-250 241v-241h-66v700h66v-422l240 222h88l-260 -240z" />
    <glyph glyph-name="kcommaaccent" unicode="&#x137;" horiz-adv-x="494" 
d="M204 260l270 -260h-88l-250 241v-241h-66v700h66v-422l240 222h88zM223 -240l10 170h66l-30 -170h-46z" />
    <glyph glyph-name="l" unicode="l" horiz-adv-x="206" 
d="M70 0v720h66v-720h-66z" />
    <glyph glyph-name="lacute" unicode="&#x13a;" horiz-adv-x="206" 
d="M70 770h64l96 130h-80zM70 0v720h66v-720h-66z" />
    <glyph glyph-name="lcaron" unicode="&#x13e;" horiz-adv-x="272" 
d="M70 0v720h66v-720h-66zM252 550l30 170h-66l-10 -170h46z" />
    <glyph glyph-name="lcommaaccent" unicode="&#x13c;" horiz-adv-x="206" 
d="M70 0v720h66v-720h-66zM107 -240l30 170h-66l-10 -170h46z" />
    <glyph glyph-name="lslash" unicode="&#x142;" horiz-adv-x="240" 
d="M220 460v-63l-67 -46v-351h-66v306l-67 -46v63l67 46v351h66v-306z" />
    <glyph glyph-name="m" unicode="m" horiz-adv-x="768" 
d="M552 512c84 0 158 -60 158 -175v-337h-66v337c0 79 -46 111 -99 111c-50 0 -122 -32 -122 -146v-302h-66v337c0 79 -46 111 -99 111c-50 0 -122 -32 -122 -146v-302h-66v500h66v-58c37 54 87 70 134 70c55 0 107 -29 134 -84c38 65 93 84 148 84z" />
    <glyph glyph-name="n" unicode="n" horiz-adv-x="518" 
d="M290 512c93 0 170 -70 170 -185v-327h-66v327c0 79 -49 121 -116 121c-68 0 -142 -42 -142 -166v-282h-66v500h66v-66c39 59 94 78 154 78z" />
    <glyph glyph-name="nacute" unicode="&#x144;" horiz-adv-x="518" 
d="M375 700l-96 -130h-64l80 130h80zM290 512c93 0 170 -70 170 -185v-327h-66v327c0 79 -49 121 -116 121c-68 0 -142 -42 -142 -166v-282h-66v500h66v-66c39 59 94 78 154 78z" />
    <glyph glyph-name="ncaron" unicode="&#x148;" horiz-adv-x="518" 
d="M226 570l-106 130h75l70 -87l70 87h75l-106 -130h-78zM290 512c93 0 170 -70 170 -185v-327h-66v327c0 79 -49 121 -116 121c-68 0 -142 -42 -142 -166v-282h-66v500h66v-66c39 59 94 78 154 78z" />
    <glyph glyph-name="ncommaaccent" unicode="&#x146;" horiz-adv-x="518" 
d="M290 512c93 0 170 -70 170 -185v-327h-66v327c0 79 -49 121 -116 121c-68 0 -142 -42 -142 -166v-282h-66v500h66v-66c39 59 94 78 154 78zM226 -240l10 170h66l-30 -170h-46z" />
    <glyph glyph-name="eng" unicode="&#x14b;" horiz-adv-x="518" 
d="M290 512c93 0 170 -70 170 -185v-367c0 -120 -65 -182 -180 -172v64c77 -8 114 22 114 108v367c0 79 -49 121 -116 121c-68 0 -142 -42 -142 -166v-282h-66v500h66v-66c39 59 94 78 154 78z" />
    <glyph glyph-name="ntilde" unicode="&#xf1;" horiz-adv-x="518" 
d="M265 603c-53 40 -82 56 -82 -23h-58c0 123 72 139 141 87c53 -40 81 -56 81 23h58c0 -123 -71 -139 -140 -87zM290 512c93 0 170 -70 170 -185v-327h-66v327c0 79 -49 121 -116 121c-68 0 -142 -42 -142 -166v-282h-66v500h66v-66c39 59 94 78 154 78z" />
    <glyph glyph-name="o" unicode="o" horiz-adv-x="606" 
d="M303 -12c-146 0 -263 114 -263 262s117 262 263 262s263 -114 263 -262s-117 -262 -263 -262zM303 52c111 0 197 87 197 198s-86 198 -197 198s-197 -87 -197 -198s86 -198 197 -198z" />
    <glyph glyph-name="oacute" unicode="&#xf3;" horiz-adv-x="606" 
d="M253 570h64l96 130h-80zM303 -12c-146 0 -263 114 -263 262s117 262 263 262s263 -114 263 -262s-117 -262 -263 -262zM303 52c111 0 197 87 197 198s-86 198 -197 198s-197 -87 -197 -198s86 -198 197 -198z" />
    <glyph glyph-name="ocircumflex" unicode="&#xf4;" horiz-adv-x="606" 
d="M303 657l-70 -87h-75l106 130h74h4l106 -130h-75zM303 512c146 0 263 -114 263 -262s-117 -262 -263 -262s-263 114 -263 262s117 262 263 262zM303 52c111 0 197 87 197 198s-86 198 -197 198s-197 -87 -197 -198s86 -198 197 -198z" />
    <glyph glyph-name="odieresis" unicode="&#xf6;" horiz-adv-x="606" 
d="M163 580v80h80v-80h-80zM363 580v80h80v-80h-80zM303 -12c-146 0 -263 114 -263 262s117 262 263 262s263 -114 263 -262s-117 -262 -263 -262zM303 52c111 0 197 87 197 198s-86 198 -197 198s-197 -87 -197 -198s86 -198 197 -198z" />
    <glyph glyph-name="ograve" unicode="&#xf2;" horiz-adv-x="606" 
d="M343 570l-80 130h-80l96 -130h64zM303 -12c-146 0 -263 114 -263 262s117 262 263 262s263 -114 263 -262s-117 -262 -263 -262zM303 52c111 0 197 87 197 198s-86 198 -197 198s-197 -87 -197 -198s86 -198 197 -198z" />
    <glyph glyph-name="ohungarumlaut" unicode="&#x151;" horiz-adv-x="606" 
d="M183 570h68l76 130h-74zM326 570h68l86 130h-74zM303 -12c-146 0 -263 114 -263 262s117 262 263 262s263 -114 263 -262s-117 -262 -263 -262zM303 52c111 0 197 87 197 198s-86 198 -197 198s-197 -87 -197 -198s86 -198 197 -198z" />
    <glyph glyph-name="omacron" unicode="&#x14d;" horiz-adv-x="606" 
d="M173 580v58h260v-58h-260zM303 -12c-146 0 -263 114 -263 262s117 262 263 262s263 -114 263 -262s-117 -262 -263 -262zM303 52c111 0 197 87 197 198s-86 198 -197 198s-197 -87 -197 -198s86 -198 197 -198z" />
    <glyph glyph-name="oslash" unicode="&#xf8;" horiz-adv-x="606" 
d="M490 435c47 -46 76 -112 76 -185c0 -148 -117 -262 -263 -262c-57 0 -109 17 -152 47l-30 -35h-60l55 65c-47 46 -76 112 -76 185c0 148 117 262 263 262c57 0 109 -17 152 -47l30 35h60zM106 250c0 -53 20 -100 52 -136l255 301c-31 21 -69 33 -110 33
c-111 0 -197 -87 -197 -198zM303 52c111 0 197 87 197 198c0 53 -20 100 -52 136l-255 -301c31 -21 69 -33 110 -33z" />
    <glyph glyph-name="otilde" unicode="&#xf5;" horiz-adv-x="606" 
d="M163 580c0 123 72 139 141 87c53 -40 81 -56 81 23h58c0 -123 -71 -139 -140 -87c-53 40 -82 56 -82 -23h-58zM303 -12c-146 0 -263 114 -263 262s117 262 263 262s263 -114 263 -262s-117 -262 -263 -262zM303 52c111 0 197 87 197 198s-86 198 -197 198
s-197 -87 -197 -198s86 -198 197 -198z" />
    <glyph glyph-name="oe" unicode="&#x153;" horiz-adv-x="1029" 
d="M754 512c153 0 245 -127 245 -264c0 -10 -1 -21 -2 -31h-66h-363c13 -102 88 -165 189 -165c74 0 129 37 151 85h73c-28 -87 -116 -149 -227 -149c-110 0 -188 57 -223 145c-40 -87 -124 -145 -228 -145c-152 0 -263 114 -263 262s111 262 263 262
c104 0 189 -58 228 -145c35 86 112 145 223 145zM303 52c111 0 197 87 197 198s-86 198 -197 198c-117 0 -197 -87 -197 -198s80 -198 197 -198zM756 448c-105 0 -176 -69 -188 -167h363c-12 110 -89 167 -175 167z" />
    <glyph glyph-name="p" unicode="p" horiz-adv-x="636" 
d="M338 512c141 0 258 -114 258 -262s-117 -262 -258 -262c-89 0 -160 43 -202 110v-298h-66v700h66v-98c42 67 113 110 202 110zM333 52c111 0 197 87 197 198s-86 198 -197 198s-197 -87 -197 -198s86 -198 197 -198z" />
    <glyph glyph-name="thorn" unicode="&#xfe;" horiz-adv-x="636" 
d="M338 512c141 0 258 -114 258 -262s-117 -262 -258 -262c-89 0 -160 43 -202 110v-298h-66v900h66v-298c42 67 113 110 202 110zM333 52c111 0 197 87 197 198s-86 198 -197 198s-197 -87 -197 -198s86 -198 197 -198z" />
    <glyph glyph-name="q" unicode="q" horiz-adv-x="636" 
d="M500 500h66v-700h-66v298c-42 -67 -113 -110 -202 -110c-141 0 -258 114 -258 262s117 262 258 262c89 0 160 -43 202 -110v98zM303 52c111 0 197 87 197 198s-86 198 -197 198s-197 -87 -197 -198s86 -198 197 -198z" />
    <glyph glyph-name="r" unicode="r" horiz-adv-x="314" 
d="M136 424c39 64 96 84 158 84v-64c-80 0 -158 -42 -158 -166v-278h-66v500h66v-76z" />
    <glyph glyph-name="racute" unicode="&#x155;" horiz-adv-x="314" 
d="M292 700l-96 -130h-64l80 130h80zM136 424c39 64 96 84 158 84v-64c-80 0 -158 -42 -158 -166v-278h-66v500h66v-76z" />
    <glyph glyph-name="rcaron" unicode="&#x159;" horiz-adv-x="314" 
d="M143 570l-106 130h75l70 -87l70 87h75l-106 -130h-78zM136 424c39 64 96 84 158 84v-64c-80 0 -158 -42 -158 -166v-278h-66v500h66v-76z" />
    <glyph glyph-name="rcommaaccent" unicode="&#x157;" horiz-adv-x="314" 
d="M136 424c39 64 96 84 158 84v-64c-80 0 -158 -42 -158 -166v-278h-66v500h66v-76zM61 -240l10 170h66l-30 -170h-46z" />
    <glyph glyph-name="s" unicode="s" horiz-adv-x="460" 
d="M121 369c0 -127 294 -51 294 -238c0 -82 -74 -143 -185 -143s-185 61 -185 157h66c0 -70 56 -93 119 -93s119 23 119 79c0 127 -294 51 -294 238c0 82 74 143 175 143s175 -61 175 -157h-66c0 70 -56 93 -109 93s-109 -23 -109 -79z" />
    <glyph glyph-name="sacute" unicode="&#x15b;" horiz-adv-x="460" 
d="M340 700l-96 -130h-64l80 130h80zM121 369c0 -127 294 -51 294 -238c0 -82 -74 -143 -185 -143s-185 61 -185 157h66c0 -70 56 -93 119 -93s119 23 119 79c0 127 -294 51 -294 238c0 82 74 143 175 143s175 -61 175 -157h-66c0 70 -56 93 -109 93s-109 -23 -109 -79z" />
    <glyph glyph-name="scaron" unicode="&#x161;" horiz-adv-x="460" 
d="M191 570l-106 130h75l70 -87l70 87h75l-106 -130h-78zM121 369c0 -127 294 -51 294 -238c0 -82 -74 -143 -185 -143s-185 61 -185 157h66c0 -70 56 -93 119 -93s119 23 119 79c0 127 -294 51 -294 238c0 82 74 143 175 143s175 -61 175 -157h-66c0 70 -56 93 -109 93
s-109 -23 -109 -79z" />
    <glyph glyph-name="scedilla" unicode="&#x15f;" horiz-adv-x="460" 
d="M415 131c0 -75 -61 -132 -156 -142v-34c57 -10 93 -40 93 -81c0 -50 -37 -100 -205 -90v54c98 -8 147 7 147 36c0 28 -35 39 -93 41v74c-95 10 -156 69 -156 156h66c0 -70 56 -93 119 -93s119 23 119 79c0 127 -294 51 -294 238c0 82 74 143 175 143s175 -61 175 -157
h-66c0 70 -56 93 -109 93s-109 -23 -109 -79c0 -127 294 -51 294 -238z" />
    <glyph glyph-name="scommaaccent" unicode="&#x219;" horiz-adv-x="460" 
d="M121 369c0 -127 294 -51 294 -238c0 -82 -74 -143 -185 -143s-185 61 -185 157h66c0 -70 56 -93 119 -93s119 23 119 79c0 127 -294 51 -294 238c0 82 74 143 175 143s175 -61 175 -157h-66c0 70 -56 93 -109 93s-109 -23 -109 -79zM205 -240l10 170h66l-30 -170h-46z
" />
    <glyph glyph-name="germandbls" unicode="&#xdf;" horiz-adv-x="496" 
d="M279 -3v60c75 -5 131 18 131 84c0 97 -144 161 -144 248c0 61 88 96 88 176c0 60 -46 83 -99 83s-119 -23 -119 -123v-525h-66v525c0 126 84 187 185 187s165 -61 165 -147c0 -96 -88 -134 -88 -176c0 -67 144 -121 144 -248c0 -92 -74 -153 -197 -144z" />
    <glyph glyph-name="t" unicode="t" horiz-adv-x="315" 
d="M295 500v-64h-104v-436h-66v436h-105v64h105v160h66v-160h104z" />
    <glyph glyph-name="tbar" unicode="&#x167;" horiz-adv-x="315" 
d="M295 436h-104v-109h77v-54h-77v-273h-66v273h-77v54h77v109h-105v64h105v160h66v-160h104v-64z" />
    <glyph glyph-name="tcaron" unicode="&#x165;" horiz-adv-x="322" 
d="M322 720l-30 -160h-46l10 160h66zM191 660v-160h104v-64h-104v-436h-66v436h-105v64h105v160h66z" />
    <glyph glyph-name="uni0163" unicode="&#x163;" horiz-adv-x="315" 
d="M191 500h104v-64h-104v-436h-66v436h-105v64h105v160h66v-160zM116 -240l10 170h66l-30 -170h-46z" />
    <glyph glyph-name="uni021B" unicode="&#x21b;" horiz-adv-x="315" 
d="M191 500h104v-64h-104v-436h-66v436h-105v64h105v160h66v-160zM116 -240l10 170h66l-30 -170h-46z" />
    <glyph glyph-name="u" unicode="u" horiz-adv-x="518" 
d="M382 500h66v-500h-66v66c-39 -59 -94 -78 -154 -78c-93 0 -170 70 -170 185v327h66v-327c0 -79 49 -121 116 -121c68 0 142 42 142 166v282z" />
    <glyph glyph-name="uacute" unicode="&#xfa;" horiz-adv-x="518" 
d="M362 700l-96 -130h-64l80 130h80zM382 500h66v-500h-66v66c-39 -59 -94 -78 -154 -78c-93 0 -170 70 -170 185v327h66v-327c0 -79 49 -121 116 -121c68 0 142 42 142 166v282z" />
    <glyph glyph-name="ucircumflex" unicode="&#xfb;" horiz-adv-x="518" 
d="M252 657l-70 -87h-75l106 130h74h4l106 -130h-75zM382 500h66v-500h-66v66c-39 -59 -94 -78 -154 -78c-93 0 -170 70 -170 185v327h66v-327c0 -79 49 -121 116 -121c68 0 142 42 142 166v282z" />
    <glyph glyph-name="udieresis" unicode="&#xfc;" horiz-adv-x="518" 
d="M192 660v-80h-80v80h80zM392 660v-80h-80v80h80zM382 500h66v-500h-66v66c-39 -59 -94 -78 -154 -78c-93 0 -170 70 -170 185v327h66v-327c0 -79 49 -121 116 -121c68 0 142 42 142 166v282z" />
    <glyph glyph-name="ugrave" unicode="&#xf9;" horiz-adv-x="518" 
d="M292 570h-64l-96 130h80zM382 500h66v-500h-66v66c-39 -59 -94 -78 -154 -78c-93 0 -170 70 -170 185v327h66v-327c0 -79 49 -121 116 -121c68 0 142 42 142 166v282z" />
    <glyph glyph-name="uhungarumlaut" unicode="&#x171;" horiz-adv-x="518" 
d="M276 700l-76 -130h-68l70 130h74zM343 570h-68l80 130h74zM382 500h66v-500h-66v66c-39 -59 -94 -78 -154 -78c-93 0 -170 70 -170 185v327h66v-327c0 -79 49 -121 116 -121c68 0 142 42 142 166v282z" />
    <glyph glyph-name="umacron" unicode="&#x16b;" horiz-adv-x="518" 
d="M382 638v-58h-260v58h260zM382 500h66v-500h-66v66c-39 -59 -94 -78 -154 -78c-93 0 -170 70 -170 185v327h66v-327c0 -79 49 -121 116 -121c68 0 142 42 142 166v282z" />
    <glyph glyph-name="uogonek" unicode="&#x173;" horiz-adv-x="518" 
d="M448 0c-46 -42 -76 -91 -76 -124c0 -22 13 -31 34 -31c15 0 28 3 42 9v-55c-17 -7 -36 -11 -59 -11c-54 0 -82 32 -82 76c0 39 23 87 75 147v55c-39 -59 -94 -78 -154 -78c-93 0 -170 70 -170 185v327h66v-327c0 -79 49 -121 116 -121c68 0 142 42 142 166v282h66v-500z
" />
    <glyph glyph-name="uring" unicode="&#x16f;" horiz-adv-x="518" 
d="M252 550c-63 0 -106 43 -106 100s43 100 106 100c64 0 106 -43 106 -100s-42 -100 -106 -100zM252 699c-33 0 -51 -21 -51 -49s18 -49 51 -49c34 0 52 21 52 49s-18 49 -52 49zM382 500h66v-500h-66v66c-39 -59 -94 -78 -154 -78c-93 0 -170 70 -170 185v327h66v-327
c0 -79 49 -121 116 -121c68 0 142 42 142 166v282z" />
    <glyph glyph-name="v" unicode="v" horiz-adv-x="470" 
d="M390 500h70l-185 -500h-66h-14l-185 500h70l155 -428z" />
    <glyph glyph-name="w" unicode="w" horiz-adv-x="680" 
d="M600 500h70l-174 -500h-62h-10l-83 239l-85 -239h-62h-10l-174 500h70l141 -424l88 254l-59 170h70l140 -422z" />
    <glyph glyph-name="wacute" unicode="&#x1e83;" horiz-adv-x="680" 
d="M450 700l-96 -130h-64l80 130h80zM600 500h70l-174 -500h-62h-10l-83 239l-85 -239h-62h-10l-174 500h70l141 -424l88 254l-59 170h70l140 -422z" />
    <glyph glyph-name="wcircumflex" unicode="&#x175;" horiz-adv-x="680" 
d="M340 657l-70 -87h-75l106 130h74h4l106 -130h-75zM600 500h70l-174 -500h-62h-10l-83 239l-85 -239h-62h-10l-174 500h70l141 -424l88 254l-59 170h70l140 -422z" />
    <glyph glyph-name="wdieresis" unicode="&#x1e85;" horiz-adv-x="680" 
d="M280 660v-80h-80v80h80zM480 660v-80h-80v80h80zM600 500h70l-174 -500h-62h-10l-83 239l-85 -239h-62h-10l-174 500h70l141 -424l88 254l-59 170h70l140 -422z" />
    <glyph glyph-name="wgrave" unicode="&#x1e81;" horiz-adv-x="680" 
d="M380 570h-64l-96 130h80zM600 500h70l-174 -500h-62h-10l-83 239l-85 -239h-62h-10l-174 500h70l141 -424l88 254l-59 170h70l140 -422z" />
    <glyph glyph-name="x" unicode="x" horiz-adv-x="453" 
d="M430 0h-72l-133 205l-133 -205h-72l169 260l-156 240h72l120 -185l120 185h72l-156 -240z" />
    <glyph glyph-name="y" unicode="y" horiz-adv-x="470" 
d="M390 500h70l-249 -700h-70l72 204l-203 496h70l166 -404z" />
    <glyph glyph-name="yacute" unicode="&#xfd;" horiz-adv-x="470" 
d="M185 570h64l96 130h-80zM390 500h70l-249 -700h-70l72 204l-203 496h70l166 -404z" />
    <glyph glyph-name="ycircumflex" unicode="&#x177;" horiz-adv-x="470" 
d="M235 657l-70 -87h-75l106 130h74h4l106 -130h-75zM390 500h70l-249 -700h-70l72 204l-203 496h70l166 -404z" />
    <glyph glyph-name="ydieresis" unicode="&#xff;" horiz-adv-x="470" 
d="M95 580v80h80v-80h-80zM295 580v80h80v-80h-80zM390 500h70l-249 -700h-70l72 204l-203 496h70l166 -404z" />
    <glyph glyph-name="ygrave" unicode="&#x1ef3;" horiz-adv-x="470" 
d="M275 570l-80 130h-80l96 -130h64zM390 500h70l-249 -700h-70l72 204l-203 496h70l166 -404z" />
    <glyph glyph-name="z" unicode="z" horiz-adv-x="450" 
d="M132 64h288v-64h-380v44l278 392h-268v64h360v-44z" />
    <glyph glyph-name="zacute" unicode="&#x17a;" horiz-adv-x="450" 
d="M342 700l-96 -130h-64l80 130h80zM132 64h288v-64h-380v44l278 392h-268v64h360v-44z" />
    <glyph glyph-name="zcaron" unicode="&#x17e;" horiz-adv-x="450" 
d="M193 570l-106 130h75l70 -87l70 87h75l-106 -130h-78zM132 64h288v-64h-380v44l278 392h-268v64h360v-44z" />
    <glyph glyph-name="zdotaccent" unicode="&#x17c;" horiz-adv-x="450" 
d="M277 670v-90h-90v90h90zM132 64h288v-64h-380v44l278 392h-268v64h360v-44z" />
    <glyph glyph-name="a.ss01" horiz-adv-x="636" 
d="M500 500h66v-500h-66v98c-42 -67 -113 -110 -202 -110c-141 0 -258 114 -258 262s117 262 258 262c89 0 160 -43 202 -110v98zM303 52c111 0 197 87 197 198s-86 198 -197 198s-197 -87 -197 -198s86 -198 197 -198z" />
    <glyph glyph-name="aacute.ss01" horiz-adv-x="636" 
d="M410 700l-96 -130h-64l80 130h80zM500 500h66v-500h-66v98c-42 -67 -113 -110 -202 -110c-141 0 -258 114 -258 262s117 262 258 262c89 0 160 -43 202 -110v98zM303 52c111 0 197 87 197 198s-86 198 -197 198s-197 -87 -197 -198s86 -198 197 -198z" />
    <glyph glyph-name="abreve.ss01" horiz-adv-x="636" 
d="M300 562c-84 0 -140 47 -140 130h64c0 -52 27 -72 76 -72s76 20 76 72h64c0 -83 -54 -130 -140 -130zM500 500h66v-500h-66v98c-42 -67 -113 -110 -202 -110c-141 0 -258 114 -258 262s117 262 258 262c89 0 160 -43 202 -110v98zM303 52c111 0 197 87 197 198
s-86 198 -197 198s-197 -87 -197 -198s86 -198 197 -198z" />
    <glyph glyph-name="acircumflex.ss01" horiz-adv-x="636" 
d="M300 657l-70 -87h-75l106 130h74h4l106 -130h-75zM500 500h66v-500h-66v98c-42 -67 -113 -110 -202 -110c-141 0 -258 114 -258 262s117 262 258 262c89 0 160 -43 202 -110v98zM303 52c111 0 197 87 197 198s-86 198 -197 198s-197 -87 -197 -198s86 -198 197 -198z" />
    <glyph glyph-name="adieresis.ss01" horiz-adv-x="636" 
d="M240 660v-80h-80v80h80zM440 660v-80h-80v80h80zM500 500h66v-500h-66v98c-42 -67 -113 -110 -202 -110c-141 0 -258 114 -258 262s117 262 258 262c89 0 160 -43 202 -110v98zM303 52c111 0 197 87 197 198s-86 198 -197 198s-197 -87 -197 -198s86 -198 197 -198z" />
    <glyph glyph-name="agrave.ss01" horiz-adv-x="636" 
d="M340 570h-64l-96 130h80zM500 500h66v-500h-66v98c-42 -67 -113 -110 -202 -110c-141 0 -258 114 -258 262s117 262 258 262c89 0 160 -43 202 -110v98zM303 52c111 0 197 87 197 198s-86 198 -197 198s-197 -87 -197 -198s86 -198 197 -198z" />
    <glyph glyph-name="amacron.ss01" horiz-adv-x="636" 
d="M430 638v-58h-260v58h260zM500 500h66v-500h-66v98c-42 -67 -113 -110 -202 -110c-141 0 -258 114 -258 262s117 262 258 262c89 0 160 -43 202 -110v98zM303 52c111 0 197 87 197 198s-86 198 -197 198s-197 -87 -197 -198s86 -198 197 -198z" />
    <glyph glyph-name="aogonek.ss01" horiz-adv-x="636" 
d="M566 0c-46 -42 -76 -91 -76 -124c0 -22 13 -31 34 -31c15 0 28 3 42 9v-55c-17 -7 -36 -11 -59 -11c-54 0 -82 32 -82 76c0 38 23 90 75 148v86c-42 -67 -113 -110 -202 -110c-141 0 -258 114 -258 262s117 262 258 262c89 0 160 -43 202 -110v98h66v-500zM303 52
c111 0 197 87 197 198s-86 198 -197 198s-197 -87 -197 -198s86 -198 197 -198z" />
    <glyph glyph-name="aring.ss01" horiz-adv-x="636" 
d="M300 550c-63 0 -106 43 -106 100s43 100 106 100c64 0 106 -43 106 -100s-42 -100 -106 -100zM300 699c-33 0 -51 -21 -51 -49s18 -49 51 -49c34 0 52 21 52 49s-18 49 -52 49zM500 500h66v-500h-66v98c-42 -67 -113 -110 -202 -110c-141 0 -258 114 -258 262
s117 262 258 262c89 0 160 -43 202 -110v98zM303 52c111 0 197 87 197 198s-86 198 -197 198s-197 -87 -197 -198s86 -198 197 -198z" />
    <glyph glyph-name="atilde.ss01" horiz-adv-x="636" 
d="M300 603c-53 40 -82 56 -82 -23h-58c0 123 72 139 141 87c53 -40 81 -56 81 23h58c0 -123 -71 -139 -140 -87zM500 500h66v-500h-66v98c-42 -67 -113 -110 -202 -110c-141 0 -258 114 -258 262s117 262 258 262c89 0 160 -43 202 -110v98zM303 52c111 0 197 87 197 198
s-86 198 -197 198s-197 -87 -197 -198s86 -198 197 -198z" />
    <glyph glyph-name="ae.ss01" horiz-adv-x="1029" 
d="M759 512c153 0 240 -127 240 -264c0 -10 -1 -21 -2 -31h-66h-363c13 -102 88 -165 189 -165c74 0 129 37 151 85h73c-28 -87 -106 -149 -217 -149c-94 0 -160 42 -198 109v-97h-66v98c-42 -67 -113 -110 -202 -110c-141 0 -258 114 -258 262s117 262 258 262
c89 0 160 -43 202 -110v98h66v-99c38 67 104 111 193 111zM303 52c111 0 197 87 197 198s-86 198 -197 198s-197 -87 -197 -198s86 -198 197 -198zM756 448c-105 0 -176 -69 -188 -167h363c-12 110 -89 167 -175 167z" />
    <glyph glyph-name="y.ss01" horiz-adv-x="518" 
d="M382 500h66v-525c0 -116 -78 -187 -190 -187s-190 71 -190 167h66c0 -70 60 -103 124 -103s124 33 124 123v91c-39 -59 -94 -78 -154 -78c-93 0 -170 70 -170 185v327h66v-327c0 -79 49 -121 116 -121c68 0 142 42 142 166v282z" />
    <glyph glyph-name="yacute.ss01" horiz-adv-x="518" 
d="M363 700l-96 -130h-64l80 130h80zM382 500h66v-525c0 -116 -78 -187 -190 -187s-190 71 -190 167h66c0 -70 60 -103 124 -103s124 33 124 123v91c-39 -59 -94 -78 -154 -78c-93 0 -170 70 -170 185v327h66v-327c0 -79 49 -121 116 -121c68 0 142 42 142 166v282z" />
    <glyph glyph-name="ycircumflex.ss01" horiz-adv-x="518" 
d="M253 657l-70 -87h-75l106 130h74h4l106 -130h-75zM382 500h66v-525c0 -116 -78 -187 -190 -187s-190 71 -190 167h66c0 -70 60 -103 124 -103s124 33 124 123v91c-39 -59 -94 -78 -154 -78c-93 0 -170 70 -170 185v327h66v-327c0 -79 49 -121 116 -121
c68 0 142 42 142 166v282z" />
    <glyph glyph-name="ydieresis.ss01" horiz-adv-x="518" 
d="M193 660v-80h-80v80h80zM393 660v-80h-80v80h80zM382 500h66v-525c0 -116 -78 -187 -190 -187s-190 71 -190 167h66c0 -70 60 -103 124 -103s124 33 124 123v91c-39 -59 -94 -78 -154 -78c-93 0 -170 70 -170 185v327h66v-327c0 -79 49 -121 116 -121
c68 0 142 42 142 166v282z" />
    <glyph glyph-name="ygrave.ss01" horiz-adv-x="518" 
d="M293 570h-64l-96 130h80zM382 500h66v-525c0 -116 -78 -187 -190 -187s-190 71 -190 167h66c0 -70 60 -103 124 -103s124 33 124 123v91c-39 -59 -94 -78 -154 -78c-93 0 -170 70 -170 185v327h66v-327c0 -79 49 -121 116 -121c68 0 142 42 142 166v282z" />
    <glyph glyph-name="f_f_j" horiz-adv-x="781" 
d="M711 500v-540c0 -120 -65 -182 -180 -172v64c77 -8 114 22 114 108v476h-204v-436h-66v436h-85h-119v-436h-66v436h-85v64h85v20c0 130 75 202 210 192v-64c-97 8 -144 -32 -144 -128v-20h144h60v30c0 130 75 192 210 192c30 0 60 -4 96 -12v-60c-35 6 -65 8 -96 8
c-97 0 -144 -32 -144 -128v-30h270z" />
    <glyph glyph-name="f_j" horiz-adv-x="511" 
d="M441 500v-540c0 -120 -65 -182 -180 -172v64c77 -8 114 22 114 108v476h-204v-436h-66v436h-85v64h85v20c0 130 75 192 210 192c30 0 60 -4 96 -12v-60c-35 6 -65 8 -96 8c-97 0 -144 -32 -144 -128v-20h270z" />
    <glyph glyph-name="ordfeminine" unicode="&#xaa;" horiz-adv-x="280" 
d="M140 712c62 0 100 -37 100 -93v-163h-49v25c-18 -22 -45 -31 -76 -31c-44 0 -85 31 -85 81s41 80 85 80c31 0 58 -10 76 -29v37c0 28 -19 45 -51 45s-51 -13 -51 -35h-49c0 50 38 83 100 83zM128 492c22 0 63 10 63 39c0 30 -41 38 -63 38c-30 0 -49 -16 -49 -38
c0 -23 19 -39 49 -39z" />
    <glyph glyph-name="ordmasculine" unicode="&#xba;" horiz-adv-x="323" 
d="M162 450c-75 0 -132 57 -132 131s57 131 132 131s131 -57 131 -131s-56 -131 -131 -131zM162 498c49 0 81 33 81 83s-32 83 -81 83s-82 -33 -82 -83s33 -83 82 -83z" />
    <glyph glyph-name="uni0410" unicode="&#x410;" 
d="M546 0l-65 172h-332l-65 -172h-74l269 700h72l269 -700h-74zM174 238h282l-141 375z" />
    <glyph glyph-name="uni0411" unicode="&#x411;" horiz-adv-x="585" 
d="M340 420c116 0 210 -95 210 -210c0 -116 -94 -210 -210 -210h-230h-30v700h70h340v-66h-340v-214h190zM340 66c77 0 140 64 140 144c0 79 -63 144 -140 144h-190v-288h190z" />
    <glyph glyph-name="uni0412" unicode="&#x412;" horiz-adv-x="685" 
d="M516 443c81 -35 134 -117 134 -213c0 -126 -94 -230 -221 -230h-339h-10v700h70h209c110 0 181 -77 181 -171c0 -31 -9 -61 -24 -86zM359 634h-209v-174h280h15c16 18 25 43 25 69c0 58 -40 105 -111 105zM419 66c98 0 161 74 161 164c0 91 -62 164 -160 164h-270v-328
h269z" />
    <glyph glyph-name="uni0413" unicode="&#x413;" horiz-adv-x="490" 
d="M470 700v-66h-320v-634h-70v700h390z" />
    <glyph glyph-name="uni0403" unicode="&#x403;" horiz-adv-x="490" 
d="M386 899l-96 -130h-64l80 130h80zM470 700v-66h-320v-634h-70v700h390z" />
    <glyph glyph-name="uni0490" unicode="&#x490;" horiz-adv-x="490" 
d="M400 820h70v-150v-36h-320v-634h-70v700h320v120z" />
    <glyph glyph-name="uni0414" unicode="&#x414;" horiz-adv-x="660" 
d="M550 66h75v-66v-144h-70v144h-75h-395v-144h-70v180v30h57c39 46 69 114 69 250v384h409v-634zM155 66h325v568h-269v-320c0 -132 -26 -204 -56 -248z" />
    <glyph glyph-name="uni0415" unicode="&#x415;" horiz-adv-x="520" 
d="M150 66h330v-66h-370h-30v700h70h325v-66h-325v-248h300v-66h-300v-254z" />
    <glyph glyph-name="uni0401" unicode="&#x401;" horiz-adv-x="520" 
d="M218 860v-80h-80v80h80zM418 860v-80h-80v80h80zM150 66h330v-66h-370h-30v700h70h325v-66h-325v-248h300v-66h-300v-254z" />
    <glyph glyph-name="uni0416" unicode="&#x416;" horiz-adv-x="850" 
d="M830 0h-82l-288 342v-342h-70v342l-288 -342h-82l301 360l-291 340h82l278 -323v323h70v-323l278 323h82l-291 -340z" />
    <glyph glyph-name="uni0417" unicode="&#x417;" horiz-adv-x="530" 
d="M398 415c70 -38 112 -111 112 -197c0 -126 -91 -230 -245 -230s-245 104 -245 230h70c0 -90 60 -164 175 -164s175 74 175 164c0 91 -62 164 -160 164h-50v62h50c15 0 30 -1 44 -4c44 34 56 71 56 101c0 58 -40 105 -121 105s-121 -47 -121 -105h-70c0 94 71 171 191 171
s191 -77 191 -171c0 -41 -15 -86 -52 -126z" />
    <glyph glyph-name="uni0418" unicode="&#x418;" 
d="M480 0v560l-340 -560h-60v700h70v-560l340 560h60v-700h-70z" />
    <glyph glyph-name="uni0419" unicode="&#x419;" 
d="M195 780v58h260v-58h-260zM480 0v560l-340 -560h-60v700h70v-560l340 560h60v-700h-70z" />
    <glyph glyph-name="uni041A" unicode="&#x41a;" horiz-adv-x="580" 
d="M570 0h-92l-328 339v-339h-70v700h70v-320l318 320h92l-336 -340z" />
    <glyph glyph-name="uni040C" unicode="&#x40c;" horiz-adv-x="580" 
d="M396 899l-96 -130h-64l80 130h80zM570 0h-92l-328 339v-339h-70v700h70v-320l318 320h92l-336 -340z" />
    <glyph glyph-name="uni041B" unicode="&#x41b;" horiz-adv-x="645" 
d="M15 -1v62c92 -12 146 43 146 250v389h404v-700h-70v634h-264v-325c0 -260 -85 -321 -216 -310z" />
    <glyph glyph-name="uni041C" unicode="&#x41c;" horiz-adv-x="800" 
d="M720 700v-700h-70v582l-215 -461h-70l-215 461v-582h-70v700h70h18l232 -500l232 500h88z" />
    <glyph glyph-name="uni041D" unicode="&#x41d;" 
d="M480 700h70v-700h-70v327h-330v-327h-70v700h70v-307h330v307z" />
    <glyph glyph-name="uni041E" unicode="&#x41e;" horiz-adv-x="804" 
d="M402 -12c-204 0 -362 162 -362 362s158 362 362 362s362 -162 362 -362s-158 -362 -362 -362zM402 56c166 0 292 131 292 294s-126 294 -292 294s-292 -131 -292 -294s126 -294 292 -294z" />
    <glyph glyph-name="uni041F" unicode="&#x41f;" 
d="M550 700v-700h-70v634h-330v-634h-70v700h70h400z" />
    <glyph glyph-name="uni0420" unicode="&#x420;" horiz-adv-x="580" 
d="M330 700c116 0 210 -94 210 -210c0 -115 -94 -210 -210 -210h-180v-280h-70v700h70h180zM330 346c77 0 140 65 140 144c0 80 -63 144 -140 144h-180v-288h180z" />
    <glyph glyph-name="uni0421" unicode="&#x421;" horiz-adv-x="765" 
d="M407 -12c-215 0 -367 162 -367 362s152 362 367 362c154 0 286 -96 328 -232h-76c-37 97 -137 164 -252 164c-177 0 -297 -131 -297 -294s120 -294 297 -294c115 0 215 67 252 164h76c-42 -136 -174 -232 -328 -232z" />
    <glyph glyph-name="uni0422" unicode="&#x422;" horiz-adv-x="500" 
d="M480 700v-66h-195v-634h-70v634h-195v66h265h195z" />
    <glyph glyph-name="uni0423" unicode="&#x423;" horiz-adv-x="570" 
d="M488 700h72l-233 -547c-47 -111 -116 -160 -223 -153v64c75 -8 121 20 153 95l14 33l-241 508h72l202 -430z" />
    <glyph glyph-name="uni040E" unicode="&#x40e;" horiz-adv-x="570" 
d="M416 837v-58h-260v58h260zM488 700h72l-233 -547c-47 -111 -116 -160 -223 -153v64c75 -8 121 20 153 95l14 33l-241 508h72l202 -430z" />
    <glyph glyph-name="uni0424" unicode="&#x424;" horiz-adv-x="804" 
d="M774 350c0 -170 -141 -262 -337 -271v-79h-70v79c-196 9 -337 101 -337 271s141 262 337 271v79h70v-79c196 -9 337 -101 337 -271zM100 350c0 -133 110 -199 267 -207v414c-157 -8 -267 -74 -267 -207zM437 143c157 8 267 74 267 207s-110 199 -267 207v-414z" />
    <glyph glyph-name="uni0425" unicode="&#x425;" horiz-adv-x="570" 
d="M550 0h-77l-188 300l-188 -300h-77l227 362l-212 338h77l173 -276l173 276h77l-211 -338z" />
    <glyph glyph-name="uni0427" unicode="&#x427;" horiz-adv-x="605" 
d="M455 700h70v-700h-70v285c-55 -24 -108 -35 -170 -35c-136 0 -220 85 -220 200v250h70v-250c0 -79 53 -134 150 -134c62 0 115 11 170 35v349z" />
    <glyph glyph-name="uni0426" unicode="&#x426;" horiz-adv-x="660" 
d="M550 66h75v-210h-70v144h-475v700h70v-634h330v634h70v-634z" />
    <glyph glyph-name="uni0428" unicode="&#x428;" horiz-adv-x="910" 
d="M760 700h70v-700h-750v700h70v-634h270v634h70v-634h270v634z" />
    <glyph glyph-name="uni0429" unicode="&#x429;" horiz-adv-x="940" 
d="M830 66h75v-210h-70v144h-755v700h70v-634h270v634h70v-634h270v634h70v-634z" />
    <glyph glyph-name="uni040F" unicode="&#x40f;" 
d="M480 700h70v-700h-70h-130v-144h-70v144h-170h-30v700h70v-634h330v634z" />
    <glyph glyph-name="uni042C" unicode="&#x42c;" horiz-adv-x="580" 
d="M330 420c116 0 210 -95 210 -210c0 -116 -94 -210 -210 -210h-220h-30v700h70v-280h180zM330 66c77 0 140 64 140 144c0 79 -63 144 -140 144h-180v-288h180z" />
    <glyph glyph-name="uni042A" unicode="&#x42a;" horiz-adv-x="690" 
d="M190 0v634h-190v66h260v-280h180c116 0 210 -95 210 -210c0 -116 -94 -210 -210 -210h-250zM260 66h180c77 0 140 64 140 144c0 79 -63 144 -140 144h-180v-288z" />
    <glyph glyph-name="uni042B" unicode="&#x42b;" horiz-adv-x="765" 
d="M80 0v700h70v-280h180c116 0 210 -95 210 -210c0 -116 -94 -210 -210 -210h-250zM615 0v700h70v-700h-70zM150 66h180c77 0 140 64 140 144c0 79 -63 144 -140 144h-180v-288z" />
    <glyph glyph-name="uni0409" unicode="&#x409;" horiz-adv-x="955" 
d="M705 400c116 0 210 -85 210 -200c0 -116 -94 -200 -210 -200h-200h-30v634h-244v-325c0 -260 -85 -321 -216 -310v62c92 -12 146 43 146 250v389h384v-300h160zM705 66c77 0 140 54 140 134c0 79 -63 134 -140 134h-160v-268h160z" />
    <glyph glyph-name="uni040A" unicode="&#x40a;" horiz-adv-x="940" 
d="M690 400c116 0 210 -85 210 -200c0 -116 -94 -200 -210 -200h-200h-30v334h-310v-334h-70v700h70v-300h310v300h70v-300h160zM690 66c77 0 140 54 140 134c0 79 -63 134 -140 134h-160v-268h160z" />
    <glyph glyph-name="uni0405" unicode="&#x405;" horiz-adv-x="550" 
d="M285 -12c-133 0 -245 77 -245 215h70c0 -96 74 -147 175 -147c86 0 155 46 155 121c0 76 -74 109 -157 140c-106 40 -223 76 -223 212c0 116 102 183 211 183c117 0 219 -72 219 -200h-70c0 86 -64 132 -149 132c-77 0 -141 -41 -141 -115c0 -80 70 -111 154 -143
c106 -41 226 -80 226 -209c0 -117 -107 -189 -225 -189z" />
    <glyph glyph-name="uni0404" unicode="&#x404;" horiz-adv-x="755" 
d="M392 56c130 0 220 67 257 164h76c-42 -136 -164 -232 -333 -232c-210 0 -352 162 -352 362s142 362 352 362c169 0 291 -96 333 -232h-76c-37 97 -127 164 -257 164c-160 0 -267 -114 -280 -261h383v-66h-383c13 -147 120 -261 280 -261z" />
    <glyph glyph-name="uni042D" unicode="&#x42d;" horiz-adv-x="755" 
d="M363 712c210 0 352 -162 352 -362s-142 -362 -352 -362c-169 0 -291 96 -333 232h76c37 -97 127 -164 257 -164c160 0 267 114 280 261h-383v66h383c-13 147 -120 261 -280 261c-130 0 -220 -67 -257 -164h-76c42 136 164 232 333 232z" />
    <glyph glyph-name="uni0406" unicode="&#x406;" horiz-adv-x="230" 
d="M80 700h70v-700h-70v700z" />
    <glyph glyph-name="uni0407" unicode="&#x407;" horiz-adv-x="230" 
d="M-25 780v80h80v-80h-80zM175 780v80h80v-80h-80zM80 700h70v-700h-70v700z" />
    <glyph glyph-name="uni0408" unicode="&#x408;" horiz-adv-x="530" 
d="M240 -12c-113 0 -220 67 -220 210v10h70v-10c0 -101 69 -142 150 -142s150 41 150 142v502h70v-502c0 -143 -107 -210 -220 -210z" />
    <glyph glyph-name="uni040B" unicode="&#x40b;" horiz-adv-x="663" 
d="M414 472c107 0 189 -62 189 -190v-282h-70v282c0 90 -48 126 -118 126c-41 0 -90 -11 -140 -33v-375h-70v634h-185v66h255h225v-66h-225v-196c48 23 96 34 139 34z" />
    <glyph glyph-name="uni042E" unicode="&#x42e;" horiz-adv-x="1040" 
d="M638 712c204 0 362 -162 362 -362s-158 -362 -362 -362c-196 0 -346 150 -357 339h-131v-327h-70v700h70v-307h132c21 180 167 319 356 319zM638 56c166 0 292 131 292 294s-126 294 -292 294s-292 -131 -292 -294s126 -294 292 -294z" />
    <glyph glyph-name="uni042F" unicode="&#x42f;" horiz-adv-x="620" 
d="M540 700v-700h-70v280h-116l-246 -280h-88l248 281c-106 11 -188 101 -188 209c0 116 94 210 210 210h250zM290 346h180v288h-180c-77 0 -140 -64 -140 -144c0 -79 63 -144 140 -144z" />
    <glyph glyph-name="uni0402" unicode="&#x402;" horiz-adv-x="658" 
d="M414 472c107 0 189 -62 189 -190v-118c0 -120 -65 -182 -180 -172v64c77 -8 110 22 110 108v118c0 90 -48 126 -118 126c-41 0 -90 -11 -140 -33v-375h-70v634h-185v66h255h225v-66h-225v-196c48 23 96 34 139 34z" />
    <glyph glyph-name="uni0414.loclBGR" horiz-adv-x="700" 
d="M611 66h64v-66v-144h-70v144h-465h-45v-144h-70v180v30h64l225 634h72zM163 66h374l-187 547z" />
    <glyph glyph-name="uni041B.loclBGR" horiz-adv-x="608" 
d="M268 700h72l258 -700h-74l-220 613l-220 -613h-74z" />
    <glyph glyph-name="uni0424.loclBGR" horiz-adv-x="844" 
d="M804 350c0 -208 -142 -347 -347 -361v-89h-70v89c-205 14 -347 153 -347 361s142 347 347 361v89h70v-89c205 -14 347 -153 347 -361zM110 350c0 -171 110 -283 277 -297v594c-167 -14 -277 -126 -277 -297zM457 53c167 14 277 126 277 297s-110 283 -277 297v-594z" />
    <glyph glyph-name="uni0414.ss01" horiz-adv-x="660" 
d="M550 66h75v-66h-145h-465v66h57c39 46 69 114 69 250v384h409v-634zM155 66h325v568h-269v-320c0 -132 -26 -204 -56 -248z" />
    <glyph glyph-name="uni0426.ss01" horiz-adv-x="660" 
d="M550 66h75v-66h-545v700h70v-634h330v634h70v-634z" />
    <glyph glyph-name="uni0429.ss01" horiz-adv-x="940" 
d="M830 66h75v-66h-825v700h70v-634h270v634h70v-634h270v634h70v-634z" />
    <glyph glyph-name="uni0414.loclBGR.ss01" horiz-adv-x="700" 
d="M611 66h64v-66h-115h-494h-41v66h64l225 634h72zM163 66h374l-187 547z" />
    <glyph glyph-name="uni0430" unicode="&#x430;" horiz-adv-x="498" 
d="M250 512c112 0 190 -71 190 -187v-325h-66v56c-34 -48 -91 -68 -155 -68c-92 0 -179 53 -179 161s87 161 179 161c64 0 121 -22 155 -65v80c0 90 -60 123 -124 123s-124 -33 -124 -103h-66c0 96 78 167 190 167zM235 50c80 0 139 42 139 99c0 61 -59 99 -139 99
c-89 0 -129 -42 -129 -99s40 -99 129 -99z" />
    <glyph glyph-name="uni0431" unicode="&#x431;" horiz-adv-x="567" 
d="M292 -12c-141 0 -252 103 -252 262c0 314 359 340 359 450h68c0 -154 -253 -154 -340 -327c50 60 112 82 169 82c133 0 241 -97 241 -233c0 -135 -104 -234 -245 -234zM292 54c105 0 179 71 179 168c0 98 -78 169 -184 169c-87 0 -179 -58 -179 -163
c0 -103 82 -174 184 -174z" />
    <glyph glyph-name="uni0432" unicode="&#x432;" horiz-adv-x="525" 
d="M415 302c56 -27 85 -79 85 -139c0 -88 -59 -163 -180 -163h-250v262v176v62h200c99 0 160 -61 160 -139c0 -21 -5 -41 -15 -59zM136 438v-116h184c11 0 21 -1 31 -2c8 12 13 25 13 41c0 54 -43 79 -94 77h-134zM320 62c73 0 114 39 114 101s-41 99 -114 99h-184v-200h184
z" />
    <glyph glyph-name="uni0433" unicode="&#x433;" horiz-adv-x="375" 
d="M370 500v-64h-234v-436h-66v500h300z" />
    <glyph glyph-name="uni0453" unicode="&#x453;" horiz-adv-x="375" 
d="M306 700l-96 -130h-64l80 130h80zM370 500v-64h-234v-436h-66v500h300z" />
    <glyph glyph-name="uni0491" unicode="&#x491;" horiz-adv-x="375" 
d="M304 604h66v-168h-234v-436h-66v500h234v104z" />
    <glyph glyph-name="uni0434" unicode="&#x434;" horiz-adv-x="570" 
d="M470 64h70v-64v-144h-66v144h-70h-318v-144h-66v180v28h61c32 42 51 91 51 189v247h66h225h47v-436zM161 64h243v372h-206v-183c0 -82 -13 -141 -37 -189z" />
    <glyph glyph-name="uni0435" unicode="&#x435;" horiz-adv-x="569" 
d="M296 512c153 0 243 -127 243 -264c0 -10 -1 -21 -2 -31h-66h-363c13 -102 88 -165 189 -165c74 0 129 37 151 85h73c-28 -87 -114 -149 -225 -149c-153 0 -256 111 -256 262c0 147 101 262 256 262zM296 448c-105 0 -176 -69 -188 -167h363c-12 110 -89 167 -175 167z
" />
    <glyph glyph-name="uni0451" unicode="&#x451;" horiz-adv-x="569" 
d="M235 660v-80h-80v80h80zM435 660v-80h-80v80h80zM296 512c153 0 243 -127 243 -264c0 -10 -1 -21 -2 -31h-66h-363c13 -102 88 -165 189 -165c74 0 129 37 151 85h73c-28 -87 -114 -149 -225 -149c-153 0 -256 111 -256 262c0 147 101 262 256 262zM296 448
c-105 0 -176 -69 -188 -167h363c-12 110 -89 167 -175 167z" />
    <glyph glyph-name="uni0436" unicode="&#x436;" horiz-adv-x="674" 
d="M654 0h-80l-204 241v-241h-66v241l-204 -241h-80l224 260l-214 240h80l194 -222v222h66v-222l194 222h80l-214 -240z" />
    <glyph glyph-name="uni0437" unicode="&#x437;" horiz-adv-x="420" 
d="M327 281c48 -29 73 -77 73 -130c0 -88 -69 -163 -190 -163s-190 75 -190 163h66c0 -62 51 -99 124 -99s124 37 124 99s-51 99 -124 99h-35v60h35c19 0 36 -2 53 -5c20 15 36 36 36 64c0 54 -43 79 -94 79s-94 -23 -94 -83h-66c0 86 61 147 160 147s160 -65 160 -143
c0 -33 -14 -65 -38 -88z" />
    <glyph glyph-name="uni0438" unicode="&#x438;" horiz-adv-x="530" 
d="M404 500h56v-500h-66v380l-268 -380h-56v500h66v-380z" />
    <glyph glyph-name="uni0439" unicode="&#x439;" horiz-adv-x="530" 
d="M135 580v58h260v-58h-260zM404 500h56v-500h-66v380l-268 -380h-56v500h66v-380z" />
    <glyph glyph-name="uni043A" unicode="&#x43a;" horiz-adv-x="494" 
d="M474 0h-88l-250 241v-241h-66v500h66v-222l240 222h88l-260 -240z" />
    <glyph glyph-name="uni045C" unicode="&#x45c;" horiz-adv-x="494" 
d="M356 700l-96 -130h-64l80 130h80zM474 0h-88l-250 241v-241h-66v500h66v-222l240 222h88l-260 -240z" />
    <glyph glyph-name="uni043B" unicode="&#x43b;" horiz-adv-x="530" 
d="M460 500v-500h-66v436h-206v-223c0 -178 -78 -220 -178 -213v62c71 -7 112 24 112 151v287h66h272z" />
    <glyph glyph-name="uni043C" unicode="&#x43c;" 
d="M560 500v-500h-66v390l-153 -289h-52l-153 289v-390h-66v500h66h10l169 -321l169 321h76z" />
    <glyph glyph-name="uni043D" unicode="&#x43d;" horiz-adv-x="531" 
d="M394 500h66v-500h-66v218h-258v-218h-66v500h66v-218h258v218z" />
    <glyph glyph-name="uni043E" unicode="&#x43e;" horiz-adv-x="606" 
d="M303 -12c-146 0 -263 114 -263 262s117 262 263 262s263 -114 263 -262s-117 -262 -263 -262zM303 52c111 0 197 87 197 198s-86 198 -197 198s-197 -87 -197 -198s86 -198 197 -198z" />
    <glyph glyph-name="uni043F" unicode="&#x43f;" horiz-adv-x="530" 
d="M460 500v-500h-66v436h-258v-436h-66v500h66h324z" />
    <glyph glyph-name="uni0440" unicode="&#x440;" horiz-adv-x="636" 
d="M338 512c141 0 258 -114 258 -262s-117 -262 -258 -262c-89 0 -160 43 -202 110v-298h-66v700h66v-98c42 67 113 110 202 110zM333 52c111 0 197 87 197 198s-86 198 -197 198s-197 -87 -197 -198s86 -198 197 -198z" />
    <glyph glyph-name="uni0441" unicode="&#x441;" horiz-adv-x="573" 
d="M543 160c-28 -102 -125 -172 -240 -172c-151 0 -263 114 -263 262s112 262 263 262c115 0 211 -70 240 -172h-70c-26 65 -92 108 -170 108c-111 0 -197 -87 -197 -198s86 -198 197 -198c79 0 145 44 170 108h70z" />
    <glyph glyph-name="uni0442" unicode="&#x442;" horiz-adv-x="400" 
d="M390 500v-64h-157v-436h-66v436h-157v64h223h157z" />
    <glyph glyph-name="uni0443" unicode="&#x443;" horiz-adv-x="480" 
d="M400 500h70l-194 -546c-35 -98 -112 -161 -202 -154v62c65 -7 113 38 136 104l13 37l-203 497h70l166 -405z" />
    <glyph glyph-name="uni045E" unicode="&#x45e;" horiz-adv-x="480" 
d="M373 638v-58h-260v58h260zM400 500h70l-194 -546c-35 -98 -112 -161 -202 -154v62c65 -7 113 38 136 104l13 37l-203 497h70l166 -405z" />
    <glyph glyph-name="uni0444" unicode="&#x444;" horiz-adv-x="670" 
d="M630 250c0 -139 -103 -247 -262 -261v-189h-66v189c-159 14 -262 122 -262 261s103 247 262 261v189h66v-189c159 -14 262 -122 262 -261zM106 250c0 -102 73 -184 196 -196v392c-123 -12 -196 -94 -196 -196zM368 54c123 12 196 94 196 196s-73 184 -196 196v-392z" />
    <glyph glyph-name="uni0445" unicode="&#x445;" horiz-adv-x="453" 
d="M430 0h-72l-133 205l-133 -205h-72l169 260l-156 240h72l120 -185l120 185h72l-156 -240z" />
    <glyph glyph-name="uni0447" unicode="&#x447;" horiz-adv-x="500" 
d="M364 500h66v-500h-66v190c-38 -20 -83 -30 -133 -30c-112 0 -181 60 -181 170v170h66v-170c0 -76 42 -108 115 -108c45 0 90 10 133 29v249z" />
    <glyph glyph-name="uni0446" unicode="&#x446;" horiz-adv-x="560" 
d="M450 64h80v-208h-66v144h-394v500h66v-436h248v436h66v-436z" />
    <glyph glyph-name="uni0448" unicode="&#x448;" horiz-adv-x="750" 
d="M614 500h66v-500h-66h-272h-229h-43v500h66v-436h206v436h66v-436h206v436z" />
    <glyph glyph-name="uni0449" unicode="&#x449;" horiz-adv-x="780" 
d="M680 64h70v-64v-144h-66v144h-70h-272h-229h-43v500h66v-436h206v436h66v-436h206v436h66v-436z" />
    <glyph glyph-name="uni045F" unicode="&#x45f;" horiz-adv-x="530" 
d="M394 500h66v-500h-66h-96v-144h-66v144h-119h-43v500h66v-436h258v436z" />
    <glyph glyph-name="uni044C" unicode="&#x44c;" horiz-adv-x="470" 
d="M273 310c91 0 167 -63 167 -155s-76 -155 -167 -155h-169h-34v500h66v-190h137zM273 64c54 0 101 34 101 91s-47 91 -101 91h-137v-182h137z" />
    <glyph glyph-name="uni044A" unicode="&#x44a;" horiz-adv-x="540" 
d="M343 310c91 0 167 -63 167 -155s-76 -155 -167 -155h-169h-34v436h-140v64h180h26v-190h137zM343 64c54 0 101 34 101 91s-47 91 -101 91h-137v-182h137z" />
    <glyph glyph-name="uni044B" unicode="&#x44b;" horiz-adv-x="646" 
d="M273 310c91 0 167 -63 167 -155s-76 -155 -167 -155h-169h-34v500h66v-190h137zM510 500h66v-500h-66v500zM273 64c54 0 101 34 101 91s-47 91 -101 91h-137v-182h137z" />
    <glyph glyph-name="uni0459" unicode="&#x459;" horiz-adv-x="759" 
d="M572 290c86 0 157 -53 157 -145s-71 -145 -157 -145h-154h-34v436h-196v-223c0 -178 -78 -220 -178 -213v62c71 -7 112 24 112 151v287h66h215h47v-210h122zM572 64c49 0 91 24 91 81s-42 81 -91 81h-122v-162h122z" />
    <glyph glyph-name="uni045A" unicode="&#x45a;" horiz-adv-x="759" 
d="M572 290c86 0 157 -53 157 -145s-71 -145 -157 -145h-154h-34v226h-248v-226h-66v500h66v-210h248v210h66v-210h122zM572 64c49 0 91 24 91 81s-42 81 -91 81h-122v-162h122z" />
    <glyph glyph-name="uni0455" unicode="&#x455;" horiz-adv-x="460" 
d="M121 369c0 -127 294 -51 294 -238c0 -82 -74 -143 -185 -143s-185 61 -185 157h66c0 -70 56 -93 119 -93s119 23 119 79c0 127 -294 51 -294 238c0 82 74 143 175 143s175 -61 175 -157h-66c0 70 -56 93 -109 93s-109 -23 -109 -79z" />
    <glyph glyph-name="uni0454" unicode="&#x454;" horiz-adv-x="570" 
d="M296 52c81 0 149 44 174 108h70c-28 -102 -127 -172 -244 -172c-149 0 -256 114 -256 262s107 262 256 262c117 0 215 -70 244 -172h-70c-26 65 -94 108 -174 108c-98 0 -174 -71 -188 -166h249v-64h-249c14 -95 90 -166 188 -166z" />
    <glyph glyph-name="uni044D" unicode="&#x44d;" horiz-adv-x="570" 
d="M274 512c149 0 256 -114 256 -262s-107 -262 -256 -262c-117 0 -216 70 -244 172h70c25 -64 93 -108 174 -108c98 0 174 71 188 166h-249v64h249c-14 95 -90 166 -188 166c-80 0 -148 -43 -174 -108h-70c29 102 127 172 244 172z" />
    <glyph glyph-name="uni0456" unicode="&#x456;" horiz-adv-x="206" 
d="M70 600v100h66v-100h-66zM70 0v500h66v-500h-66z" />
    <glyph glyph-name="uni0457" unicode="&#x457;" horiz-adv-x="206" 
d="M-37 580v80h80v-80h-80zM163 580v80h80v-80h-80zM70 0v500h66v-500h-66z" />
    <glyph glyph-name="uni0458" unicode="&#x458;" horiz-adv-x="230" 
d="M94 700h66v-100h-66v100zM94 -40v540h66v-540c0 -120 -65 -182 -180 -172v64c77 -8 114 22 114 108z" />
    <glyph glyph-name="uni045B" unicode="&#x45b;" horiz-adv-x="528" 
d="M300 512c93 0 170 -70 170 -185v-327h-66v327c0 79 -49 121 -116 121c-68 0 -142 -42 -142 -166v-282h-66v576h-70v54h70v70h66v-70h144v-54h-144v-142c39 59 94 78 154 78z" />
    <glyph glyph-name="uni044E" unicode="&#x44e;" horiz-adv-x="800" 
d="M497 512c146 0 263 -114 263 -262s-117 -262 -263 -262c-135 0 -242 98 -257 230h-104v-218h-66v500h66v-218h104c15 132 122 230 257 230zM497 52c111 0 197 87 197 198s-86 198 -197 198s-197 -87 -197 -198s86 -198 197 -198z" />
    <glyph glyph-name="uni044F" unicode="&#x44f;" horiz-adv-x="500" 
d="M430 500v-500h-66v192h-90l-170 -192h-84l175 195c-76 12 -135 69 -135 150c0 92 76 155 167 155h203zM227 254h137v182h-137c-54 0 -101 -34 -101 -91s47 -91 101 -91z" />
    <glyph glyph-name="uni0452" unicode="&#x452;" horiz-adv-x="525" 
d="M300 512c93 0 170 -70 170 -185v-367c0 -120 -65 -182 -180 -172v64c77 -8 114 22 114 108v367c0 79 -49 121 -116 121c-68 0 -142 -42 -142 -166v-282h-66v576h-70v54h70v70h66v-70h144v-54h-144v-142c39 59 94 78 154 78z" />
    <glyph glyph-name="uni0432.loclBGR" horiz-adv-x="570" 
d="M399 400c82 -27 131 -97 131 -200c0 -133 -85 -212 -230 -212s-230 90 -230 242v235c0 151 82 247 218 247c113 0 182 -70 182 -168c0 -52 -25 -102 -71 -144zM288 648c-95 0 -152 -72 -152 -183v-81l103 21c29 6 57 8 82 8c54 39 83 85 83 131c0 58 -42 104 -116 104z
M300 52c103 0 164 55 164 148c0 112 -90 169 -225 141l-103 -21v-90c0 -112 61 -178 164 -178z" />
    <glyph glyph-name="uni0433.loclBGR" horiz-adv-x="450" 
d="M344 145h66c0 -96 -77 -157 -186 -157c-117 0 -184 52 -184 138c0 187 292 118 292 245c0 56 -54 77 -103 77c-57 0 -115 -25 -115 -95h-66c0 96 76 159 181 159c97 0 169 -59 169 -141c0 -187 -292 -118 -292 -245c0 -60 49 -74 118 -74c61 0 120 23 120 93z" />
    <glyph glyph-name="uni0434.loclBGR" horiz-adv-x="636" 
d="M500 500h66v-480c0 -152 -117 -232 -251 -232c-122 0 -239 81 -239 187h66c0 -52 64 -123 173 -123c121 0 185 66 185 168v78c-42 -67 -113 -110 -202 -110c-141 0 -258 114 -258 262s117 262 258 262c89 0 160 -43 202 -110v98zM303 52c111 0 197 87 197 198
s-86 198 -197 198s-197 -87 -197 -198s86 -198 197 -198z" />
    <glyph glyph-name="uni0436.loclBGR" horiz-adv-x="674" 
d="M654 0h-80l-204 241v-241h-66v241l-204 -241h-80l224 260l-214 240h80l194 -222v422h66v-422l194 222h80l-214 -240z" />
    <glyph glyph-name="uni0438.loclBGR" horiz-adv-x="518" 
d="M382 500h66v-500h-66v66c-39 -59 -94 -78 -154 -78c-93 0 -170 70 -170 185v327h66v-327c0 -79 49 -121 116 -121c68 0 142 42 142 166v282z" />
    <glyph glyph-name="uni0439.loclBGR" horiz-adv-x="518" 
d="M385 638v-58h-260v58h260zM382 500h66v-500h-66v66c-39 -59 -94 -78 -154 -78c-93 0 -170 70 -170 185v327h66v-327c0 -79 49 -121 116 -121c68 0 142 42 142 166v282z" />
    <glyph glyph-name="uni043A.loclBGR" horiz-adv-x="494" 
d="M474 0h-88l-250 241v-241h-66v700h66v-422l240 222h88l-260 -240z" />
    <glyph glyph-name="uni043B.loclBGR" horiz-adv-x="470" 
d="M460 0h-70l-155 428l-155 -428h-70l185 500h66h14z" />
    <glyph glyph-name="uni043F.loclBGR" horiz-adv-x="518" 
d="M290 512c93 0 170 -70 170 -185v-327h-66v327c0 79 -49 121 -116 121c-68 0 -142 -42 -142 -166v-282h-66v500h66v-66c39 59 94 78 154 78z" />
    <glyph glyph-name="uni0442.loclBGR" horiz-adv-x="768" 
d="M552 512c84 0 158 -60 158 -175v-337h-66v337c0 79 -46 111 -99 111c-50 0 -122 -32 -122 -146v-302h-66v337c0 79 -46 111 -99 111c-50 0 -122 -32 -122 -146v-302h-66v500h66v-58c37 54 87 70 134 70c55 0 107 -29 134 -84c38 65 93 84 148 84z" />
    <glyph glyph-name="uni0446.loclBGR" horiz-adv-x="554" 
d="M485 64h39v-64v-144h-66v146c-36 6 -62 30 -72 65c-39 -61 -96 -79 -158 -79c-93 0 -170 70 -170 185v327h66v-327c0 -79 49 -121 116 -121c68 0 142 42 142 166v282h66v-400c0 -22 15 -36 37 -36z" />
    <glyph glyph-name="uni0448.loclBGR" horiz-adv-x="768" 
d="M632 500h66v-500h-66v58c-37 -54 -87 -70 -134 -70c-55 0 -107 29 -134 84c-38 -65 -93 -84 -148 -84c-84 0 -158 60 -158 175v337h66v-337c0 -79 46 -111 99 -111c50 0 122 32 122 146v302h66v-337c0 -79 46 -111 99 -111c50 0 122 32 122 146v302z" />
    <glyph glyph-name="uni0449.loclBGR" horiz-adv-x="804" 
d="M735 64h39v-64v-144h-66v146c-34 5 -59 27 -70 59c-38 -58 -90 -73 -140 -73c-55 0 -107 29 -134 84c-38 -65 -93 -84 -148 -84c-84 0 -158 60 -158 175v337h66v-337c0 -79 46 -111 99 -111c50 0 122 32 122 146v302h66v-337c0 -79 46 -111 99 -111c50 0 122 32 122 146
v302h66v-400c0 -22 15 -36 37 -36z" />
    <glyph glyph-name="uni044C.loclBGR" horiz-adv-x="478" 
d="M253 338c123 0 195 -63 195 -170c0 -96 -78 -180 -195 -180c-123 0 -195 79 -195 180v332h66v-162h129zM253 52c77 0 129 58 129 116c0 67 -48 106 -129 106h-129v-106c0 -60 48 -116 129 -116z" />
    <glyph glyph-name="uni044A.loclBGR" horiz-adv-x="562" 
d="M335 338c123 0 195 -63 195 -170c0 -96 -78 -180 -195 -180c-123 0 -195 79 -195 180v268h-140v64h180h26v-162h129zM335 52c77 0 129 58 129 116c0 67 -48 106 -129 106h-129v-106c0 -60 48 -116 129 -116z" />
    <glyph glyph-name="uni044E.loclBGR" horiz-adv-x="800" 
d="M497 512c146 0 263 -114 263 -262s-117 -262 -263 -262c-135 0 -242 98 -257 230h-104v-218h-66v700h66v-418h104c15 132 122 230 257 230zM497 52c111 0 197 87 197 198s-86 198 -197 198s-197 -87 -197 -198s86 -198 197 -198z" />
    <glyph glyph-name="uni0430.ss01" horiz-adv-x="636" 
d="M500 500h66v-500h-66v98c-42 -67 -113 -110 -202 -110c-141 0 -258 114 -258 262s117 262 258 262c89 0 160 -43 202 -110v98zM303 52c111 0 197 87 197 198s-86 198 -197 198s-197 -87 -197 -198s86 -198 197 -198z" />
    <glyph glyph-name="uni0443.ss01" horiz-adv-x="518" 
d="M382 500h66v-525c0 -116 -78 -187 -190 -187s-190 71 -190 167h66c0 -70 60 -103 124 -103s124 33 124 123v91c-39 -59 -94 -78 -154 -78c-93 0 -170 70 -170 185v327h66v-327c0 -79 49 -121 116 -121c68 0 142 42 142 166v282z" />
    <glyph glyph-name="uni0394" unicode="&#x394;" 
d="M351 700l269 -700h-74h-481h-55l269 700h72zM109 66h412l-206 547z" />
    <glyph glyph-name="uni03A9" unicode="&#x3a9;" horiz-adv-x="804" 
d="M764 350c0 -122 -59 -225 -151 -284h139v-66h-273v66c126 33 215 147 215 284c0 163 -126 294 -292 294s-292 -131 -292 -294c0 -137 88 -251 215 -284v-66h-273v66h139c-93 59 -151 162 -151 284c0 200 158 362 362 362s362 -162 362 -362z" />
    <glyph glyph-name="pi" unicode="&#x3c0;" horiz-adv-x="620" 
d="M590 500v-64h-83v-436h-66v436h-258v-436h-66v436h-87v64h153h324h83z" />
    <glyph glyph-name="zero" unicode="0" 
d="M315 -12c-171 0 -265 146 -265 362s94 362 265 362s265 -146 265 -362s-94 -362 -265 -362zM315 56c123 0 195 107 195 294s-72 294 -195 294s-195 -107 -195 -294s72 -294 195 -294z" />
    <glyph glyph-name="one" unicode="1" horiz-adv-x="340" 
d="M190 700h70v-700h-70v623l-175 -94v77z" />
    <glyph glyph-name="two" unicode="2" horiz-adv-x="525" 
d="M40 0v63l252 254c59 59 108 120 108 185c0 95 -69 142 -141 142c-80 0 -149 -41 -149 -142h-70c0 143 107 210 219 210c104 0 211 -73 211 -210c0 -89 -59 -164 -130 -235l-200 -199h345v-68h-445z" />
    <glyph glyph-name="three" unicode="3" horiz-adv-x="530" 
d="M297 409c105 -14 193 -83 193 -206c0 -139 -112 -215 -235 -215s-235 76 -235 215h70c0 -97 74 -147 165 -147s165 50 165 147s-74 147 -165 147v1l-1 -1h-49v46l174 238h-329v66h410v-66z" />
    <glyph glyph-name="four" unicode="4" horiz-adv-x="570" 
d="M555 206v-66h-90v-140h-70v140h-370v66l260 494h77l-260 -494h293v214h70v-214h90z" />
    <glyph glyph-name="five" unicode="5" horiz-adv-x="550" 
d="M275 418c123 0 235 -76 235 -215s-112 -215 -235 -215s-235 76 -235 215h70c0 -97 74 -147 165 -147s165 50 165 147s-74 147 -165 147h-200l25 350h385v-66h-321l-15 -216h126z" />
    <glyph glyph-name="six" unicode="6" horiz-adv-x="530" 
d="M265 450c136 0 235 -94 235 -231s-99 -231 -235 -231s-235 94 -235 231c0 55 16 102 43 140l229 341h79l-172 -256c18 4 37 6 56 6zM265 56c99 0 165 65 165 163s-66 163 -165 163s-165 -65 -165 -163s66 -163 165 -163z" />
    <glyph glyph-name="seven" unicode="7" horiz-adv-x="490" 
d="M20 700h430v-66l-264 -634h-73l264 634h-357v66z" />
    <glyph glyph-name="eight" unicode="8" horiz-adv-x="548" 
d="M392 361c69 -32 116 -93 116 -171c0 -132 -107 -202 -234 -202s-234 70 -234 202c0 78 47 139 116 171c-54 31 -93 85 -93 157c0 133 107 194 211 194s211 -61 211 -194c0 -72 -39 -126 -93 -157zM274 644c-72 0 -141 -35 -141 -126c0 -85 69 -126 141 -126
s141 41 141 126c0 91 -69 126 -141 126zM274 56c95 0 164 44 164 134s-69 134 -164 134s-164 -44 -164 -134s69 -134 164 -134z" />
    <glyph glyph-name="nine" unicode="9" horiz-adv-x="530" 
d="M500 481c0 -55 -16 -102 -43 -140l-229 -341h-79l172 256c-18 -4 -37 -6 -56 -6c-136 0 -235 94 -235 231s99 231 235 231s235 -94 235 -231zM100 481c0 -98 66 -163 165 -163s165 65 165 163s-66 163 -165 163s-165 -65 -165 -163z" />
    <glyph glyph-name="zero.sinf" horiz-adv-x="410" 
d="M205 -172c-111 0 -175 86 -175 212s64 212 175 212s175 -86 175 -212s-64 -212 -175 -212zM205 -112c70 0 113 52 113 152s-43 152 -113 152s-113 -52 -113 -152s43 -152 113 -152z" />
    <glyph glyph-name="one.sinf" horiz-adv-x="247" 
d="M125 240h62v-400h-62v332l-105 -57v68z" />
    <glyph glyph-name="two.sinf" horiz-adv-x="340" 
d="M30 -160v51l168 154c28 25 42 58 42 85c0 37 -27 62 -72 62c-48 0 -76 -25 -76 -67h-62c0 78 57 127 138 127c82 0 134 -55 134 -122c0 -46 -21 -88 -62 -125l-118 -105h188v-60h-280z" />
    <glyph glyph-name="three.sinf" horiz-adv-x="352" 
d="M211 74c66 -13 106 -56 106 -117c0 -77 -58 -129 -146 -129s-146 52 -146 129h62c0 -41 29 -69 84 -69s84 28 84 69s-32 69 -84 69h-35v47l90 107h-184v60h258v-60z" />
    <glyph glyph-name="four.sinf" horiz-adv-x="354" 
d="M334 -27v-58h-51v-75h-62v75h-206v58l149 267h67l-148 -267h138v96h62v-96h51z" />
    <glyph glyph-name="five.sinf" horiz-adv-x="341" 
d="M170 90c84 0 141 -53 141 -133c0 -77 -53 -129 -143 -129s-143 52 -143 129h62c0 -41 30 -69 81 -69c52 0 81 28 81 69c0 44 -29 73 -81 73h-125l15 210h237v-58h-182l-6 -92h63z" />
    <glyph glyph-name="six.sinf" horiz-adv-x="335" 
d="M167 107c85 0 148 -61 148 -139c0 -79 -63 -140 -148 -140c-84 0 -147 61 -147 140c0 26 7 50 19 70v1c2 2 3 4 4 5l125 196h75l-92 -134c5 1 11 1 16 1zM167 -112c53 0 86 34 86 80s-33 79 -86 79c-52 0 -85 -33 -85 -79s33 -80 85 -80z" />
    <glyph glyph-name="seven.sinf" horiz-adv-x="296" 
d="M10 240h266v-50l-148 -350h-66l146 340h-198v60z" />
    <glyph glyph-name="eight.sinf" horiz-adv-x="335" 
d="M245 51c40 -21 66 -58 66 -105c0 -72 -59 -118 -143 -118c-85 0 -144 46 -144 118c0 47 26 84 66 104c-31 19 -53 49 -53 88c0 73 60 114 131 114c70 0 130 -41 130 -114c0 -39 -22 -69 -53 -87zM168 194c-45 0 -69 -22 -69 -56c0 -35 24 -59 69 -59c44 0 68 24 68 59
c0 34 -24 56 -68 56zM168 -112c52 0 81 27 81 66c0 41 -33 65 -81 65c-53 0 -82 -24 -82 -65c0 -39 29 -66 82 -66z" />
    <glyph glyph-name="nine.sinf" horiz-adv-x="335" 
d="M296 42v-1c-2 -2 -3 -4 -4 -5l-125 -196h-75l92 134c-5 -1 -11 -1 -16 -1c-85 0 -148 61 -148 139c0 79 63 140 148 140c84 0 147 -61 147 -140c0 -26 -7 -50 -19 -70zM82 112c0 -46 33 -79 86 -79c52 0 85 33 85 79s-33 80 -85 80c-53 0 -86 -34 -86 -80z" />
    <glyph glyph-name="zero.tf" horiz-adv-x="570" 
d="M285 -12c-171 0 -265 146 -265 362s94 362 265 362s265 -146 265 -362s-94 -362 -265 -362zM285 56c123 0 195 107 195 294s-72 294 -195 294s-195 -107 -195 -294s72 -294 195 -294z" />
    <glyph glyph-name="one.tf" horiz-adv-x="570" 
d="M350 66h190v-66h-260h-240v66h240v557l-205 -114v77l205 114h70v-634z" />
    <glyph glyph-name="two.tf" horiz-adv-x="570" 
d="M45 0v63l253 218c83 71 147 136 147 211c0 95 -64 152 -161 152c-85 0 -169 -51 -169 -152h-70c0 143 122 220 239 220c129 0 231 -83 231 -220c0 -99 -72 -181 -169 -260l-201 -164h385v-68h-485z" />
    <glyph glyph-name="three.tf" horiz-adv-x="570" 
d="M331 409c120 -13 209 -82 209 -206c0 -139 -112 -215 -255 -215s-255 76 -255 215h70c0 -97 74 -147 185 -147s185 50 185 147s-74 147 -185 147v1l-1 -1h-49v46l191 238h-366v66h450v-66z" />
    <glyph glyph-name="four.tf" horiz-adv-x="570" 
d="M550 206v-66h-90v-140h-70v140h-370v66l260 494h76l-260 -494h294v194h70v-194h90z" />
    <glyph glyph-name="five.tf" horiz-adv-x="570" 
d="M285 418c133 0 245 -76 245 -215s-112 -215 -245 -215s-245 76 -245 215h70c0 -97 74 -147 175 -147s175 50 175 147s-74 147 -175 147h-210l25 350h405v-66h-341l-15 -216h136z" />
    <glyph glyph-name="six.tf" horiz-adv-x="570" 
d="M275 450c156 0 255 -94 255 -231s-99 -231 -255 -231s-255 94 -255 231c0 54 16 102 44 139l244 342h83l-182 -256c20 4 43 6 66 6zM275 56c119 0 185 65 185 163s-66 163 -185 163s-185 -65 -185 -163s66 -163 185 -163z" />
    <glyph glyph-name="seven.tf" horiz-adv-x="570" 
d="M40 700h490v-66l-285 -634h-72l284 634h-417v66z" />
    <glyph glyph-name="eight.tf" horiz-adv-x="570" 
d="M418 361c73 -33 117 -94 117 -171c0 -130 -102 -202 -250 -202s-250 72 -250 202c0 77 44 138 117 171c-56 33 -93 88 -93 157c0 129 101 194 226 194s226 -65 226 -194c0 -69 -37 -124 -93 -157zM285 644c-93 0 -156 -39 -156 -126c0 -81 63 -126 156 -126
s156 45 156 126c0 87 -63 126 -156 126zM285 56c116 0 180 49 180 134s-64 134 -180 134s-180 -49 -180 -134s64 -134 180 -134z" />
    <glyph glyph-name="nine.tf" horiz-adv-x="570" 
d="M550 481c0 -54 -16 -102 -44 -139l-244 -342h-83l182 256c-20 -4 -43 -6 -66 -6c-156 0 -255 94 -255 231s99 231 255 231s255 -94 255 -231zM110 481c0 -98 66 -163 185 -163s185 65 185 163s-66 163 -185 163s-185 -65 -185 -163z" />
    <glyph glyph-name="fraction" unicode="&#x2044;" horiz-adv-x="220" 
d="M-60 0h-60l400 700h60z" />
    <glyph glyph-name="onehalf" unicode="&#xbd;" horiz-adv-x="807" 
d="M187 300h-62v332l-105 -57v68l105 57h62v-400zM527 700h60l-400 -700h-60zM589 60h188v-60h-280v51l168 154c28 25 42 58 42 85c0 37 -27 62 -72 62c-48 0 -76 -25 -76 -67h-62c0 78 57 127 138 127c82 0 134 -55 134 -122c0 -46 -21 -88 -62 -125z" />
    <glyph glyph-name="onequarter" unicode="&#xbc;" horiz-adv-x="821" 
d="M187 300h-62v332l-105 -57v68l105 57h62v-400zM527 700h60l-400 -700h-60zM801 133v-58h-51v-75h-62v75h-206v58l149 267h67l-148 -267h138v96h62v-96h51z" />
    <glyph glyph-name="threequarters" unicode="&#xbe;" horiz-adv-x="926" 
d="M317 417c0 -77 -58 -129 -146 -129s-146 52 -146 129h62c0 -41 29 -69 84 -69s84 28 84 69s-32 69 -84 69h-35v47l90 107h-184v60h258v-60l-89 -106c66 -13 106 -56 106 -117zM632 700h60l-400 -700h-60zM906 133v-58h-51v-75h-62v75h-206v58l149 267h67l-148 -267h138
v96h62v-96h51z" />
    <glyph glyph-name="oneeighth" unicode="&#x215b;" horiz-adv-x="802" 
d="M187 300h-62v332l-105 -57v68l105 57h62v-400zM527 700h60l-400 -700h-60zM712 211c40 -21 66 -58 66 -105c0 -72 -59 -118 -143 -118c-85 0 -144 46 -144 118c0 47 26 84 66 104c-31 19 -53 49 -53 88c0 73 60 114 131 114c70 0 130 -41 130 -114c0 -39 -22 -69 -53 -87
zM635 354c-45 0 -69 -22 -69 -56c0 -35 24 -59 69 -59c44 0 68 24 68 59c0 34 -24 56 -68 56zM635 48c52 0 81 27 81 66c0 41 -33 65 -81 65c-53 0 -82 -24 -82 -65c0 -39 29 -66 82 -66z" />
    <glyph glyph-name="threeeighths" unicode="&#x215c;" horiz-adv-x="907" 
d="M317 417c0 -77 -58 -129 -146 -129s-146 52 -146 129h62c0 -41 29 -69 84 -69s84 28 84 69s-32 69 -84 69h-35v47l90 107h-184v60h258v-60l-89 -106c66 -13 106 -56 106 -117zM632 700h60l-400 -700h-60zM817 211c40 -21 66 -58 66 -105c0 -72 -59 -118 -143 -118
c-85 0 -144 46 -144 118c0 47 26 84 66 104c-31 19 -53 49 -53 88c0 73 60 114 131 114c70 0 130 -41 130 -114c0 -39 -22 -69 -53 -87zM740 354c-45 0 -69 -22 -69 -56c0 -35 24 -59 69 -59c44 0 68 24 68 59c0 34 -24 56 -68 56zM740 48c52 0 81 27 81 66
c0 41 -33 65 -81 65c-53 0 -82 -24 -82 -65c0 -39 29 -66 82 -66z" />
    <glyph glyph-name="fiveeighths" unicode="&#x215d;" horiz-adv-x="896" 
d="M306 417c0 -77 -53 -129 -143 -129s-143 52 -143 129h62c0 -41 30 -69 81 -69c52 0 81 28 81 69c0 44 -29 73 -81 73h-125l15 210h237v-58h-182l-6 -92h63c84 0 141 -53 141 -133zM621 700h60l-400 -700h-60zM806 211c40 -21 66 -58 66 -105c0 -72 -59 -118 -143 -118
c-85 0 -144 46 -144 118c0 47 26 84 66 104c-31 19 -53 49 -53 88c0 73 60 114 131 114c70 0 130 -41 130 -114c0 -39 -22 -69 -53 -87zM729 354c-45 0 -69 -22 -69 -56c0 -35 24 -59 69 -59c44 0 68 24 68 59c0 34 -24 56 -68 56zM729 48c52 0 81 27 81 66
c0 41 -33 65 -81 65c-53 0 -82 -24 -82 -65c0 -39 29 -66 82 -66z" />
    <glyph glyph-name="seveneighths" unicode="&#x215e;" horiz-adv-x="851" 
d="M276 700v-50l-148 -350h-66l146 340h-198v60h266zM576 700h60l-400 -700h-60zM761 211c40 -21 66 -58 66 -105c0 -72 -59 -118 -143 -118c-85 0 -144 46 -144 118c0 47 26 84 66 104c-31 19 -53 49 -53 88c0 73 60 114 131 114c70 0 130 -41 130 -114
c0 -39 -22 -69 -53 -87zM684 354c-45 0 -69 -22 -69 -56c0 -35 24 -59 69 -59c44 0 68 24 68 59c0 34 -24 56 -68 56zM684 48c52 0 81 27 81 66c0 41 -33 65 -81 65c-53 0 -82 -24 -82 -65c0 -39 29 -66 82 -66z" />
    <glyph glyph-name="zero.dnom" horiz-adv-x="410" 
d="M205 -12c-111 0 -175 86 -175 212s64 212 175 212s175 -86 175 -212s-64 -212 -175 -212zM205 48c70 0 113 52 113 152s-43 152 -113 152s-113 -52 -113 -152s43 -152 113 -152z" />
    <glyph glyph-name="one.dnom" horiz-adv-x="247" 
d="M125 400h62v-400h-62v332l-105 -57v68z" />
    <glyph glyph-name="two.dnom" horiz-adv-x="340" 
d="M30 0v51l168 154c28 25 42 58 42 85c0 37 -27 62 -72 62c-48 0 -76 -25 -76 -67h-62c0 78 57 127 138 127c82 0 134 -55 134 -122c0 -46 -21 -88 -62 -125l-118 -105h188v-60h-280z" />
    <glyph glyph-name="three.dnom" horiz-adv-x="352" 
d="M211 234c66 -13 106 -56 106 -117c0 -77 -58 -129 -146 -129s-146 52 -146 129h62c0 -41 29 -69 84 -69s84 28 84 69s-32 69 -84 69h-35v47l90 107h-184v60h258v-60z" />
    <glyph glyph-name="four.dnom" horiz-adv-x="354" 
d="M334 133v-58h-51v-75h-62v75h-206v58l149 267h67l-148 -267h138v96h62v-96h51z" />
    <glyph glyph-name="five.dnom" horiz-adv-x="341" 
d="M165 250c84 0 141 -53 141 -133c0 -77 -53 -129 -143 -129s-143 52 -143 129h62c0 -41 30 -69 81 -69c52 0 81 28 81 69c0 44 -29 73 -81 73h-125l15 210h237v-58h-182l-6 -92h63z" />
    <glyph glyph-name="six.dnom" horiz-adv-x="335" 
d="M167 267c85 0 148 -61 148 -139c0 -79 -63 -140 -148 -140c-84 0 -147 61 -147 140c0 26 7 50 19 70v1c2 2 3 4 4 5l125 196h75l-92 -134c5 1 11 1 16 1zM167 48c53 0 86 34 86 80s-33 79 -86 79c-52 0 -85 -33 -85 -79s33 -80 85 -80z" />
    <glyph glyph-name="seven.dnom" horiz-adv-x="296" 
d="M10 400h266v-50l-148 -350h-66l146 340h-198v60z" />
    <glyph glyph-name="eight.dnom" horiz-adv-x="335" 
d="M245 211c40 -21 66 -58 66 -105c0 -72 -59 -118 -143 -118c-85 0 -144 46 -144 118c0 47 26 84 66 104c-31 19 -53 49 -53 88c0 73 60 114 131 114c70 0 130 -41 130 -114c0 -39 -22 -69 -53 -87zM168 354c-45 0 -69 -22 -69 -56c0 -35 24 -59 69 -59c44 0 68 24 68 59
c0 34 -24 56 -68 56zM168 48c52 0 81 27 81 66c0 41 -33 65 -81 65c-53 0 -82 -24 -82 -65c0 -39 29 -66 82 -66z" />
    <glyph glyph-name="nine.dnom" horiz-adv-x="335" 
d="M296 202v-1c-2 -2 -3 -4 -4 -5l-125 -196h-75l92 134c-5 -1 -11 -1 -16 -1c-85 0 -148 61 -148 139c0 79 63 140 148 140c84 0 147 -61 147 -140c0 -26 -7 -50 -19 -70zM82 272c0 -46 33 -79 86 -79c52 0 85 33 85 79s-33 80 -85 80c-53 0 -86 -34 -86 -80z" />
    <glyph glyph-name="zero.numr" horiz-adv-x="410" 
d="M205 288c-111 0 -175 86 -175 212s64 212 175 212s175 -86 175 -212s-64 -212 -175 -212zM205 348c70 0 113 52 113 152s-43 152 -113 152s-113 -52 -113 -152s43 -152 113 -152z" />
    <glyph glyph-name="one.numr" horiz-adv-x="247" 
d="M125 700h62v-400h-62v332l-105 -57v68z" />
    <glyph glyph-name="two.numr" horiz-adv-x="340" 
d="M30 300v51l168 154c28 25 42 58 42 85c0 37 -27 62 -72 62c-48 0 -76 -25 -76 -67h-62c0 78 57 127 138 127c82 0 134 -55 134 -122c0 -46 -21 -88 -62 -125l-118 -105h188v-60h-280z" />
    <glyph glyph-name="three.numr" horiz-adv-x="352" 
d="M211 534c66 -13 106 -56 106 -117c0 -77 -58 -129 -146 -129s-146 52 -146 129h62c0 -41 29 -69 84 -69s84 28 84 69s-32 69 -84 69h-35v47l90 107h-184v60h258v-60z" />
    <glyph glyph-name="four.numr" horiz-adv-x="354" 
d="M334 433v-58h-51v-75h-62v75h-206v58l149 267h67l-148 -267h138v96h62v-96h51z" />
    <glyph glyph-name="five.numr" horiz-adv-x="341" 
d="M165 550c84 0 141 -53 141 -133c0 -77 -53 -129 -143 -129s-143 52 -143 129h62c0 -41 30 -69 81 -69c52 0 81 28 81 69c0 44 -29 73 -81 73h-125l15 210h237v-58h-182l-6 -92h63z" />
    <glyph glyph-name="six.numr" horiz-adv-x="335" 
d="M167 567c85 0 148 -61 148 -139c0 -79 -63 -140 -148 -140c-84 0 -147 61 -147 140c0 26 7 50 19 70v1c2 2 3 4 4 5l125 196h75l-92 -134c5 1 11 1 16 1zM167 348c53 0 86 34 86 80s-33 79 -86 79c-52 0 -85 -33 -85 -79s33 -80 85 -80z" />
    <glyph glyph-name="seven.numr" horiz-adv-x="296" 
d="M10 700h266v-50l-148 -350h-66l146 340h-198v60z" />
    <glyph glyph-name="eight.numr" horiz-adv-x="335" 
d="M245 511c40 -21 66 -58 66 -105c0 -72 -59 -118 -143 -118c-85 0 -144 46 -144 118c0 47 26 84 66 104c-31 19 -53 49 -53 88c0 73 60 114 131 114c70 0 130 -41 130 -114c0 -39 -22 -69 -53 -87zM168 654c-45 0 -69 -22 -69 -56c0 -35 24 -59 69 -59c44 0 68 24 68 59
c0 34 -24 56 -68 56zM168 348c52 0 81 27 81 66c0 41 -33 65 -81 65c-53 0 -82 -24 -82 -65c0 -39 29 -66 82 -66z" />
    <glyph glyph-name="nine.numr" horiz-adv-x="335" 
d="M296 502v-1c-2 -2 -3 -4 -4 -5l-125 -196h-75l92 134c-5 -1 -11 -1 -16 -1c-85 0 -148 61 -148 139c0 79 63 140 148 140c84 0 147 -61 147 -140c0 -26 -7 -50 -19 -70zM82 572c0 -46 33 -79 86 -79c52 0 85 33 85 79s-33 80 -85 80c-53 0 -86 -34 -86 -80z" />
    <glyph glyph-name="zero.sups" horiz-adv-x="410" 
d="M205 448c-111 0 -175 86 -175 212s64 212 175 212s175 -86 175 -212s-64 -212 -175 -212zM205 508c70 0 113 52 113 152s-43 152 -113 152s-113 -52 -113 -152s43 -152 113 -152z" />
    <glyph glyph-name="one.sups" horiz-adv-x="247" 
d="M125 860h62v-400h-62v332l-105 -57v68z" />
    <glyph glyph-name="two.sups" horiz-adv-x="340" 
d="M30 460v51l168 154c28 25 42 58 42 85c0 37 -27 62 -72 62c-48 0 -76 -25 -76 -67h-62c0 78 57 127 138 127c82 0 134 -55 134 -122c0 -46 -21 -88 -62 -125l-118 -105h188v-60h-280z" />
    <glyph glyph-name="three.sups" horiz-adv-x="352" 
d="M211 694c66 -13 106 -56 106 -117c0 -77 -58 -129 -146 -129s-146 52 -146 129h62c0 -41 29 -69 84 -69s84 28 84 69s-32 69 -84 69h-35v47l90 107h-184v60h258v-60z" />
    <glyph glyph-name="four.sups" horiz-adv-x="354" 
d="M334 593v-58h-51v-75h-62v75h-206v58l149 267h67l-148 -267h138v96h62v-96h51z" />
    <glyph glyph-name="five.sups" horiz-adv-x="341" 
d="M165 710c84 0 141 -53 141 -133c0 -77 -53 -129 -143 -129s-143 52 -143 129h62c0 -41 30 -69 81 -69c52 0 81 28 81 69c0 44 -29 73 -81 73h-125l15 210h237v-58h-182l-6 -92h63z" />
    <glyph glyph-name="six.sups" horiz-adv-x="335" 
d="M167 727c85 0 148 -61 148 -139c0 -79 -63 -140 -148 -140c-84 0 -147 61 -147 140c0 26 7 50 19 70v1c2 2 3 4 4 5l125 196h75l-92 -134c5 1 11 1 16 1zM167 508c53 0 86 34 86 80s-33 79 -86 79c-52 0 -85 -33 -85 -79s33 -80 85 -80z" />
    <glyph glyph-name="seven.sups" horiz-adv-x="296" 
d="M10 860h266v-50l-148 -350h-66l146 340h-198v60z" />
    <glyph glyph-name="eight.sups" horiz-adv-x="335" 
d="M245 671c40 -21 66 -58 66 -105c0 -72 -59 -118 -143 -118c-85 0 -144 46 -144 118c0 47 26 84 66 104c-31 19 -53 49 -53 88c0 73 60 114 131 114c70 0 130 -41 130 -114c0 -39 -22 -69 -53 -87zM168 814c-45 0 -69 -22 -69 -56c0 -35 24 -59 69 -59c44 0 68 24 68 59
c0 34 -24 56 -68 56zM168 508c52 0 81 27 81 66c0 41 -33 65 -81 65c-53 0 -82 -24 -82 -65c0 -39 29 -66 82 -66z" />
    <glyph glyph-name="nine.sups" horiz-adv-x="335" 
d="M296 662v-1c-2 -2 -3 -4 -4 -5l-125 -196h-75l92 134c-5 -1 -11 -1 -16 -1c-85 0 -148 61 -148 139c0 79 63 140 148 140c84 0 147 -61 147 -140c0 -26 -7 -50 -19 -70zM82 732c0 -46 33 -79 86 -79c52 0 85 33 85 79s-33 80 -85 80c-53 0 -86 -34 -86 -80z" />
    <glyph glyph-name="asterisk" unicode="*" horiz-adv-x="392" 
d="M332 610v-56l-91 3l52 -75l-51 -30l-46 81l-46 -81l-51 30l52 75l-91 -3v56l91 -3l-52 75l51 30l46 -81l46 81l51 -30l-52 -75z" />
    <glyph glyph-name="backslash" unicode="\" horiz-adv-x="530" 
d="M440 -100l-400 900h50l400 -900h-50z" />
    <glyph glyph-name="periodcentered" unicode="&#xb7;" horiz-adv-x="230" 
d="M70 305v90h90v-90h-90z" />
    <glyph glyph-name="bullet" unicode="&#x2022;" horiz-adv-x="300" 
d="M151 250c-56 0 -101 45 -101 101c0 55 45 99 101 99c55 0 99 -44 99 -99c0 -56 -44 -101 -99 -101z" />
    <glyph glyph-name="colon" unicode=":" horiz-adv-x="230" 
d="M70 410v90h90v-90h-90zM70 0v90h90v-90h-90z" />
    <glyph glyph-name="comma" unicode="," horiz-adv-x="230" 
d="M70 90h90v-90c0 -73 -30 -121 -90 -130v40c24 9 45 24 45 90h-45v90z" />
    <glyph glyph-name="ellipsis" unicode="&#x2026;" horiz-adv-x="610" 
d="M70 0v90h90v-90h-90zM260 0v90h90v-90h-90zM450 0v90h90v-90h-90z" />
    <glyph glyph-name="exclam" unicode="!" horiz-adv-x="230" 
d="M90 190l-15 310v200h80v-200l-15 -310h-50zM70 0v90h90v-90h-90z" />
    <glyph glyph-name="exclamdown" unicode="&#xa1;" horiz-adv-x="230" 
d="M70 500h90v-90h-90v90zM90 310h50l15 -310v-200h-80v200z" />
    <glyph glyph-name="numbersign" unicode="#" horiz-adv-x="599" 
d="M559 410h-119l-20 -120h120l-10 -60h-120l-30 -180h-64l30 180h-132l-30 -180h-64l30 180h-120l10 60h120l20 120h-121l10 60h121l30 180h64l-30 -180h132l30 180h64l-30 -180h119zM356 290l20 120h-132l-20 -120h132z" />
    <glyph glyph-name="period" unicode="." horiz-adv-x="230" 
d="M70 0v90h90v-90h-90z" />
    <glyph glyph-name="question" unicode="?" horiz-adv-x="535" 
d="M213 190c0 176 192 207 192 337c0 81 -64 117 -141 117c-85 0 -154 -41 -154 -132h-70c0 133 107 200 224 200c109 0 211 -62 211 -185c0 -155 -192 -191 -192 -337h-70zM203 0v90h90v-90h-90z" />
    <glyph glyph-name="questiondown" unicode="&#xbf;" horiz-adv-x="535" 
d="M332 500v-90h-90v90h90zM322 310c0 -176 -192 -207 -192 -337c0 -81 64 -117 141 -117c85 0 154 41 154 132h70c0 -133 -107 -200 -224 -200c-109 0 -211 62 -211 185c0 155 192 191 192 337h70z" />
    <glyph glyph-name="quotedbl" unicode="&#x22;" horiz-adv-x="310" 
d="M60 500l-10 200h70l-10 -200h-50zM200 500l-10 200h70l-10 -200h-50z" />
    <glyph glyph-name="quotesingle" unicode="'" horiz-adv-x="170" 
d="M60 500l-10 200h70l-10 -200h-50z" />
    <glyph glyph-name="semicolon" unicode=";" horiz-adv-x="230" 
d="M70 500h90v-90h-90v90zM70 0v90h90v-90c0 -73 -30 -121 -90 -130v40c24 9 45 24 45 90h-45z" />
    <glyph glyph-name="slash" unicode="/" horiz-adv-x="530" 
d="M90 -100h-50l400 900h50z" />
    <glyph glyph-name="underscore" unicode="_" horiz-adv-x="520" 
d="M40 -141v64h440v-64h-440z" />
    <glyph glyph-name="braceleft" unicode="{" horiz-adv-x="354" 
d="M334 -108c-115 -10 -180 42 -180 162v167c0 86 -37 98 -104 98v64c67 0 104 12 104 98v167c0 120 65 172 180 162v-64c-77 8 -114 -12 -114 -98v-167c0 -79 -28 -115 -78 -130c50 -15 78 -51 78 -130v-167c0 -86 37 -106 114 -98v-64z" />
    <glyph glyph-name="braceright" unicode="}" horiz-adv-x="354" 
d="M20 -108v64c77 -8 114 12 114 98v167c0 79 28 115 78 130c-50 15 -78 51 -78 130v167c0 86 -37 106 -114 98v64c115 10 180 -42 180 -162v-167c0 -86 37 -98 104 -98v-64c-67 0 -104 -12 -104 -98v-167c0 -120 -65 -172 -180 -162z" />
    <glyph glyph-name="bracketleft" unicode="[" horiz-adv-x="260" 
d="M260 736h-134v-772h134v-64h-190h-10v900h66h134v-64z" />
    <glyph glyph-name="bracketright" unicode="]" horiz-adv-x="260" 
d="M200 800v-900h-66h-134v64h134v772h-134v64h200z" />
    <glyph glyph-name="parenleft" unicode="(" horiz-adv-x="266" 
d="M170 -100c-70 140 -110 290 -110 450s40 310 110 450h66c-70 -140 -110 -290 -110 -450s40 -310 110 -450h-66z" />
    <glyph glyph-name="parenright" unicode=")" horiz-adv-x="266" 
d="M96 -100h-66c70 140 110 290 110 450s-40 310 -110 450h66c70 -140 110 -290 110 -450s-40 -310 -110 -450z" />
    <glyph glyph-name="emdash" unicode="&#x2014;" horiz-adv-x="760" 
d="M80 277v64h600v-64h-600z" />
    <glyph glyph-name="endash" unicode="&#x2013;" horiz-adv-x="660" 
d="M80 277v64h500v-64h-500z" />
    <glyph glyph-name="hyphen" unicode="-" horiz-adv-x="520" 
d="M80 277v64h360v-64h-360z" />
    <glyph glyph-name="guillemotleft" unicode="&#xab;" horiz-adv-x="492" 
d="M262 489l-110 -180l110 -180h-82l-110 180l110 180h82zM422 489l-110 -180l110 -180h-82l-110 180l110 180h82z" />
    <glyph glyph-name="guillemotright" unicode="&#xbb;" horiz-adv-x="492" 
d="M152 489l110 -180l-110 -180h-82l110 180l-110 180h82zM312 489l110 -180l-110 -180h-82l110 180l-110 180h82z" />
    <glyph glyph-name="guilsinglleft" unicode="&#x2039;" horiz-adv-x="332" 
d="M262 489l-110 -180l110 -180h-82l-110 180l110 180h82z" />
    <glyph glyph-name="guilsinglright" unicode="&#x203a;" horiz-adv-x="332" 
d="M152 489l110 -180l-110 -180h-82l110 180l-110 180h82z" />
    <glyph glyph-name="quotedblbase" unicode="&#x201e;" horiz-adv-x="370" 
d="M70 0v90h90v-90c0 -73 -30 -121 -90 -130v40c24 9 45 24 45 90h-45zM210 90h90v-90c0 -73 -30 -121 -90 -130v40c24 9 45 24 45 90h-45v90z" />
    <glyph glyph-name="quotedblleft" unicode="&#x201c;" horiz-adv-x="370" 
d="M70 575c0 73 30 121 90 130v-40c-24 -9 -45 -24 -45 -90h45v-90h-90v90zM300 665c-24 -9 -45 -24 -45 -90h45v-90h-90v90c0 73 30 121 90 130v-40z" />
    <glyph glyph-name="quotedblright" unicode="&#x201d;" horiz-adv-x="370" 
d="M70 610v90h90v-90c0 -73 -30 -121 -90 -130v40c24 9 45 24 45 90h-45zM210 700h90v-90c0 -73 -30 -121 -90 -130v40c24 9 45 24 45 90h-45v90z" />
    <glyph glyph-name="quoteleft" unicode="&#x2018;" horiz-adv-x="230" 
d="M160 665c-24 -9 -45 -24 -45 -90h45v-90h-90v90c0 73 30 121 90 130v-40z" />
    <glyph glyph-name="quoteright" unicode="&#x2019;" horiz-adv-x="230" 
d="M70 700h90v-90c0 -73 -30 -121 -90 -130v40c24 9 45 24 45 90h-45v90z" />
    <glyph glyph-name="quotesinglbase" unicode="&#x201a;" horiz-adv-x="230" 
d="M70 90h90v-90c0 -73 -30 -121 -90 -130v40c24 9 45 24 45 90h-45v90z" />
    <glyph glyph-name="space" unicode=" " horiz-adv-x="250" 
 />
    <glyph glyph-name="cent" unicode="&#xa2;" horiz-adv-x="573" 
d="M303 152c79 0 145 44 170 108h70c-28 -102 -125 -172 -240 -172c-24 0 -46 3 -68 8l-31 -96h-50l36 112c-91 40 -150 130 -150 238c0 148 112 262 263 262c16 0 32 -1 47 -4l30 92h50l-34 -104c72 -27 126 -83 147 -156h-70c-17 43 -52 77 -97 94l-121 -376
c15 -4 31 -6 48 -6zM106 350c0 -77 42 -143 104 -176l120 372c-9 1 -18 2 -27 2c-111 0 -197 -87 -197 -198z" />
    <glyph glyph-name="currency" unicode="&#xa4;" horiz-adv-x="552" 
d="M489 350c0 -51 -17 -98 -47 -134l70 -70l-32 -32l-70 70c-37 -29 -83 -46 -134 -46s-97 17 -134 46l-70 -70l-32 32l70 70c-29 36 -47 82 -47 134s18 98 47 134l-70 70l32 32l70 -70c37 29 83 46 134 46s97 -17 134 -46l70 70l32 -32l-70 -70c30 -36 47 -83 47 -134z
M129 350c0 -83 64 -148 147 -148s147 65 147 148s-64 148 -147 148s-147 -65 -147 -148z" />
    <glyph glyph-name="dollar" unicode="$" horiz-adv-x="550" 
d="M510 172c0 -110 -95 -176 -205 -183v-89h-60v90c-115 14 -205 89 -205 213h70c0 -83 55 -132 135 -144v272c-95 37 -190 83 -190 203c0 107 91 168 190 177v89h60v-90c103 -13 190 -83 190 -198h-70c0 74 -51 119 -120 129v-263c100 -39 205 -85 205 -206zM125 534
c0 -67 53 -103 120 -132v241c-66 -8 -120 -43 -120 -109zM305 57c76 6 135 46 135 115s-61 107 -135 136v-251z" />
    <glyph glyph-name="Euro" unicode="&#x20ac;" horiz-adv-x="620" 
d="M519 234h71c-19 -151 -107 -246 -245 -246c-148 0 -238 109 -260 278h-75v58h70v26c0 12 0 23 1 34h-71v58h76c24 164 114 270 259 270c136 0 223 -92 243 -238h-71c-16 109 -79 170 -172 170c-101 0 -168 -72 -188 -202h253v-58h-259c-1 -11 -1 -22 -1 -34v-26h260v-58
h-254c19 -135 86 -210 189 -210c95 0 159 64 174 178z" />
    <glyph glyph-name="florin" unicode="&#x192;" horiz-adv-x="439" 
d="M439 639c-72 28 -121 -2 -132 -68l-32 -188h115v-64h-126l-66 -388c-20 -120 -100 -162 -198 -132v64c72 -28 121 2 132 68l66 388h-109v64h120l32 188c20 120 100 162 198 132v-64z" />
    <glyph glyph-name="uni20BD" unicode="&#x20bd;" horiz-adv-x="590" 
d="M360 280h-180v-94h260v-58h-260v-128h-70v128h-90v58h90v94h-90v66h90v354h70h180c116 0 210 -94 210 -210c0 -115 -94 -210 -210 -210zM180 634v-288h180c77 0 140 65 140 144c0 80 -63 144 -140 144h-180z" />
    <glyph glyph-name="sterling" unicode="&#xa3;" horiz-adv-x="585" 
d="M204 68h366v-68h-530v68h94v211h-74v62h74v161c0 143 104 210 205 210c96 0 205 -67 205 -210v-22h-70v22c0 101 -71 142 -135 142c-69 0 -135 -41 -135 -142v-161h231v-62h-231v-211z" />
    <glyph glyph-name="yen" unicode="&#xa5;" horiz-adv-x="575" 
d="M565 700l-229 -353h167v-58h-181v-60h181v-58h-181v-171h-70v171h-179v58h179v60h-179v58h166l-229 353h79l199 -305l198 305h79z" />
    <glyph glyph-name="cent.tf" horiz-adv-x="570" 
d="M303 152c79 0 145 44 170 108h70c-28 -102 -125 -172 -240 -172c-24 0 -46 3 -68 8l-31 -96h-50l36 112c-91 40 -150 130 -150 238c0 148 112 262 263 262c16 0 32 -1 47 -4l30 92h50l-34 -104c72 -27 126 -83 147 -156h-70c-17 43 -52 77 -97 94l-121 -376
c15 -4 31 -6 48 -6zM106 350c0 -77 42 -143 104 -176l120 372c-9 1 -18 2 -27 2c-111 0 -197 -87 -197 -198z" />
    <glyph glyph-name="dollar.tf" horiz-adv-x="570" 
d="M530 172c0 -111 -96 -177 -215 -183v-89h-60v90c-123 13 -215 88 -215 213h70c0 -84 57 -133 145 -145v271c-103 38 -200 84 -200 205c0 107 92 169 200 177v89h60v-90c112 -12 200 -82 200 -198h-70c0 75 -53 120 -130 130v-262c109 -41 215 -87 215 -208zM125 534
c0 -67 54 -101 130 -131v240c-74 -7 -130 -43 -130 -109zM315 57c85 5 145 45 145 115c0 68 -62 103 -145 135v-250z" />
    <glyph glyph-name="Euro.tf" horiz-adv-x="570" 
d="M474 234h71c-9 -151 -102 -246 -230 -246c-139 0 -224 109 -245 278h-65v58h60v26c0 12 0 23 1 34h-61v58h66c22 164 107 270 244 270c126 0 218 -92 228 -238h-71c-6 109 -74 170 -157 170c-93 0 -155 -72 -174 -202h244v-58h-249c-1 -11 -1 -22 -1 -34v-26h250v-58
h-245c18 -135 80 -210 175 -210c85 0 154 64 159 178z" />
    <glyph glyph-name="florin.tf" horiz-adv-x="570" 
d="M540 639c-82 28 -127 -2 -143 -68l-47 -188h150v-64h-166l-96 -388c-30 -120 -100 -162 -208 -132v64c82 -28 126 2 142 68l96 388h-149v64h165l47 188c30 120 101 162 209 132v-64z" />
    <glyph glyph-name="uni20BD.tf" horiz-adv-x="570" 
d="M330 280h-160v-94h240v-58h-240v-128h-70v128h-90v58h90v94h-90v66h90v354h70h160c116 0 210 -94 210 -210c0 -115 -94 -210 -210 -210zM170 634v-288h160c77 0 140 65 140 144c0 80 -63 144 -140 144h-160z" />
    <glyph glyph-name="sterling.tf" horiz-adv-x="570" 
d="M164 68h366v-68h-530v68h94v211h-74v62h74v161c0 143 104 210 205 210c96 0 205 -67 205 -210v-22h-70v22c0 101 -71 142 -135 142c-69 0 -135 -41 -135 -142v-161h231v-62h-231v-211z" />
    <glyph glyph-name="yen.tf" horiz-adv-x="570" 
d="M563 700l-229 -353h167v-58h-181v-60h181v-58h-181v-171h-70v171h-179v58h179v60h-179v58h166l-229 353h77l201 -309l200 309h77z" />
    <glyph glyph-name="approxequal" unicode="&#x2248;" horiz-adv-x="594" 
d="M282 402c-101 63 -142 37 -162 -36l-60 28c33 108 121 146 252 64c103 -64 142 -37 162 36l60 -28c-33 -108 -118 -147 -252 -64zM120 206l-60 28c33 108 121 146 252 64c103 -64 142 -37 162 36l60 -28c-33 -108 -118 -147 -252 -64c-101 63 -142 37 -162 -36z" />
    <glyph glyph-name="asciitilde" unicode="~" horiz-adv-x="594" 
d="M474 414l60 -28c-33 -108 -118 -147 -252 -64c-101 63 -142 37 -162 -36l-60 28c33 108 121 146 252 64c103 -64 142 -37 162 36z" />
    <glyph glyph-name="divide" unicode="&#xf7;" horiz-adv-x="580" 
d="M290 482c-31 0 -55 24 -55 55s24 55 55 55s55 -24 55 -55s-24 -55 -55 -55zM60 318v64h460v-64h-460zM290 108c-31 0 -55 24 -55 55s24 55 55 55s55 -24 55 -55s-24 -55 -55 -55z" />
    <glyph glyph-name="emptyset" unicode="&#x2205;" horiz-adv-x="804" 
d="M653 611c69 -66 111 -159 111 -261c0 -200 -162 -362 -362 -362c-78 0 -151 25 -210 67l-62 -75h-70l91 109c-69 66 -111 159 -111 261c0 200 162 362 362 362c78 0 151 -25 210 -67l62 75h70zM100 350c0 -85 34 -161 88 -216l387 466c-49 34 -109 54 -173 54
c-168 0 -302 -135 -302 -304zM402 46c168 0 302 135 302 304c0 85 -34 161 -88 216l-387 -466c49 -34 109 -54 173 -54z" />
    <glyph glyph-name="equal" unicode="=" horiz-adv-x="540" 
d="M60 418v64h420v-64h-420zM60 218v64h420v-64h-420z" />
    <glyph glyph-name="greater" unicode="&#x3e;" horiz-adv-x="520" 
d="M60 560l400 -175v-70l-400 -175v74l325 136l-325 136v74z" />
    <glyph glyph-name="greaterequal" unicode="&#x2265;" horiz-adv-x="520" 
d="M60 600l400 -156v-66l-400 -156v74l317 115l-317 115v74zM60 100v64h400v-64h-400z" />
    <glyph glyph-name="infinity" unicode="&#x221e;" horiz-adv-x="800" 
d="M584 510c92 0 161 -69 161 -160s-69 -160 -161 -160c-84 0 -142 57 -184 110c-42 -53 -100 -110 -184 -110c-92 0 -161 69 -161 160s69 160 161 160c84 0 142 -57 184 -110c42 53 100 110 184 110zM217 250c59 0 106 46 145 100c-39 54 -86 100 -145 100
c-57 0 -97 -42 -97 -100s40 -100 97 -100zM584 250c57 0 97 42 97 100s-40 100 -97 100c-59 0 -106 -46 -145 -100c39 -54 86 -100 145 -100z" />
    <glyph glyph-name="integral" unicode="&#x222b;" horiz-adv-x="439" 
d="M0 -202v64c72 -28 115 2 126 68l109 640c20 120 94 162 204 132v-64c-84 28 -127 -2 -138 -68l-109 -640c-20 -120 -94 -162 -192 -132z" />
    <glyph glyph-name="less" unicode="&#x3c;" horiz-adv-x="520" 
d="M460 560v-74l-325 -136l325 -136v-74l-400 175v70z" />
    <glyph glyph-name="lessequal" unicode="&#x2264;" horiz-adv-x="520" 
d="M460 600v-74l-317 -115l317 -115v-74l-400 156v66zM60 100v64h400v-64h-400z" />
    <glyph glyph-name="logicalnot" unicode="&#xac;" horiz-adv-x="520" 
d="M60 382h400v-64v-116h-66v116h-334v64z" />
    <glyph glyph-name="uni00B5" unicode="&#xb5;" horiz-adv-x="566" 
d="M497 64h39v-64h-47c-46 0 -79 26 -91 67c-39 -62 -93 -79 -154 -79c-43 0 -81 16 -108 45v-233h-66v700h66v-327c0 -79 49 -121 116 -121c68 0 142 42 142 166v282h66v-400c0 -22 15 -36 37 -36z" />
    <glyph glyph-name="minus" unicode="&#x2212;" horiz-adv-x="540" 
d="M60 318v64h420v-64h-420z" />
    <glyph glyph-name="multiply" unicode="&#xd7;" horiz-adv-x="471" 
d="M421 492l-142 -142l142 -142l-45 -42l-140 141l-141 -141l-45 42l142 142l-142 142l45 42l141 -140l140 140z" />
    <glyph glyph-name="notequal" unicode="&#x2260;" horiz-adv-x="540" 
d="M480 418h-155l-60 -136h215v-64h-244l-66 -148h-50l66 148h-126v64h155l60 136h-215v64h244l66 148h50l-66 -148h126v-64z" />
    <glyph glyph-name="partialdiff" unicode="&#x2202;" horiz-adv-x="576" 
d="M232 712c157 0 284 -141 284 -362c0 -234 -113 -362 -259 -362c-132 0 -207 94 -207 212c0 135 83 230 229 230c53 0 116 -16 170 -53c-7 143 -81 270 -217 270c-46 0 -89 -10 -131 -35v64c39 25 82 36 131 36zM257 52c108 0 182 96 192 258c-53 41 -117 56 -170 56
c-98 0 -163 -57 -163 -166c0 -81 44 -148 141 -148z" />
    <glyph glyph-name="percent" unicode="%" horiz-adv-x="749" 
d="M213 412c-88 0 -153 67 -153 150s65 150 153 150s153 -67 153 -150s-63 -150 -153 -150zM90 0l491 700h78l-492 -700h-77zM213 472c53 0 89 40 89 90s-36 90 -89 90s-89 -40 -89 -90s36 -90 89 -90zM536 -12c-88 0 -153 67 -153 150s65 150 153 150s153 -67 153 -150
s-65 -150 -153 -150zM536 48c53 0 89 40 89 90s-36 90 -89 90s-89 -40 -89 -90s36 -90 89 -90z" />
    <glyph glyph-name="perthousand" unicode="&#x2030;" horiz-adv-x="1089" 
d="M213 412c-88 0 -153 67 -153 150s65 150 153 150s153 -67 153 -150s-63 -150 -153 -150zM90 0l491 700h78l-492 -700h-77zM213 472c53 0 89 40 89 90s-36 90 -89 90s-89 -40 -89 -90s36 -90 89 -90zM536 -12c-88 0 -153 67 -153 150s65 150 153 150s153 -67 153 -150
s-65 -150 -153 -150zM896 -12c-88 0 -153 67 -153 150s65 150 153 150s153 -67 153 -150s-65 -150 -153 -150zM536 48c53 0 89 40 89 90s-36 90 -89 90s-89 -40 -89 -90s36 -90 89 -90zM896 48c53 0 89 40 89 90s-36 90 -89 90s-89 -40 -89 -90s36 -90 89 -90z" />
    <glyph glyph-name="plus" unicode="+" horiz-adv-x="540" 
d="M480 382v-64h-178v-178h-64v178h-178v64h178v178h64v-178h178z" />
    <glyph glyph-name="plusminus" unicode="&#xb1;" horiz-adv-x="540" 
d="M302 447h178v-64h-178v-163h-64v163h-178v64h178v163h64v-163zM60 90v64h420v-64h-420z" />
    <glyph glyph-name="product" unicode="&#x220f;" horiz-adv-x="640" 
d="M80 -200v900h480v-900h-66v836h-348v-836h-66z" />
    <glyph glyph-name="radical" unicode="&#x221a;" horiz-adv-x="644" 
d="M285 0l-137 236h-88v64h126l127 -220l241 720h70l-269 -800h-70z" />
    <glyph glyph-name="summation" unicode="&#x2211;" horiz-adv-x="540" 
d="M50 -200v65l240 395l-225 374v66h430v-64h-355l227 -376l-241 -396h384v-64h-460z" />
    <glyph glyph-name="arrowup" unicode="&#x2191;" horiz-adv-x="720" 
d="M660 400v-90l-267 267v-577h-66v577l-267 -267v90l300 300z" />
    <glyph glyph-name="uni2197" unicode="&#x2197;" horiz-adv-x="638" 
d="M154 587h424v-424l-63 -63v377l-408 -408l-47 47l408 408h-377z" />
    <glyph glyph-name="arrowright" unicode="&#x2192;" horiz-adv-x="820" 
d="M460 650l300 -300l-300 -300h-90l268 268h-578v64h578l-268 268h90z" />
    <glyph glyph-name="uni2198" unicode="&#x2198;" horiz-adv-x="638" 
d="M515 576l63 -63v-424h-424l-63 63h377l-408 408l47 47l408 -408v377z" />
    <glyph glyph-name="arrowdown" unicode="&#x2193;" horiz-adv-x="720" 
d="M393 123l267 267v-90l-300 -300l-300 300v90l267 -267v577h66v-577z" />
    <glyph glyph-name="uni2199" unicode="&#x2199;" horiz-adv-x="638" 
d="M578 560l-408 -408h377l-63 -63h-424v424l63 63v-377l408 408z" />
    <glyph glyph-name="arrowleft" unicode="&#x2190;" horiz-adv-x="820" 
d="M760 382v-64h-578l268 -268h-90l-300 300l300 300h90l-268 -268h578z" />
    <glyph glyph-name="uni2196" unicode="&#x2196;" horiz-adv-x="638" 
d="M578 116l-47 -47l-408 408v-377l-63 63v424h424l63 -63h-377z" />
    <glyph glyph-name="arrowboth" unicode="&#x2194;" horiz-adv-x="1040" 
d="M731 600l249 -250l-249 -250h-90l217 218h-676l217 -218h-90l-249 250l249 250h90l-217 -218h676l-217 218h90z" />
    <glyph glyph-name="arrowupdn" unicode="&#x2195;" horiz-adv-x="620" 
d="M560 471l-217 216v-674l217 216v-90l-250 -249l-250 249v90l217 -216v674l-217 -216v90l250 249l250 -249v-90z" />
    <glyph glyph-name="lozenge" unicode="&#x25ca;" horiz-adv-x="540" 
d="M236 0l-186 350l186 350h68l186 -350l-186 -350h-68zM270 71l149 279l-149 279l-149 -279z" />
    <glyph glyph-name="bar" unicode="|" horiz-adv-x="226" 
d="M80 -200v920h66v-920h-66z" />
    <glyph glyph-name="brokenbar" unicode="&#xa6;" horiz-adv-x="226" 
d="M80 350v370h66v-370h-66zM80 -200v370h66v-370h-66z" />
    <glyph glyph-name="at" unicode="@" horiz-adv-x="794" 
d="M404 612c223 0 350 -177 350 -342c0 -153 -76 -212 -144 -212c-53 0 -98 26 -112 86c-26 -33 -65 -54 -111 -54c-93 0 -162 70 -162 160s69 160 162 160c43 0 80 -18 106 -48v41h62v-216c0 -48 13 -96 65 -96c53 0 104 48 104 179c0 179 -140 314 -320 314
c-183 0 -334 -142 -334 -334c0 -193 150 -334 352 -334c69 0 126 10 174 29v-30c-47 -17 -103 -27 -174 -27c-218 0 -382 152 -382 362c0 200 156 362 364 362zM391 150c55 0 102 39 102 100s-47 100 -102 100c-56 0 -104 -39 -104 -100s48 -100 104 -100z" />
    <glyph glyph-name="ampersand" unicode="&#x26;" horiz-adv-x="654" 
d="M634 0h-95l-50 51c-46 -39 -111 -63 -201 -63c-136 0 -238 80 -238 205c0 79 41 146 113 191c-33 37 -55 77 -55 138c0 119 98 190 207 190c107 0 213 -67 213 -200h-70c0 91 -68 132 -143 132c-77 0 -137 -45 -137 -122c0 -47 28 -85 65 -122l243 -248
c25 43 38 101 38 172h70c0 -75 -14 -158 -59 -223zM288 56c64 0 115 15 152 44l-230 234c-63 -35 -90 -87 -90 -141c0 -82 69 -137 168 -137z" />
    <glyph glyph-name="paragraph" unicode="&#xb6;" horiz-adv-x="580" 
d="M540 700v-62h-60v-838h-64v838h-112v-838h-64v500c-111 0 -200 90 -200 200c0 111 89 200 200 200h64h176h60z" />
    <glyph glyph-name="copyright" unicode="&#xa9;" horiz-adv-x="804" 
d="M402 -12c-200 0 -362 162 -362 362s162 362 362 362s362 -162 362 -362s-162 -362 -362 -362zM402 16c183 0 332 149 332 334s-149 334 -332 334s-332 -149 -332 -334s149 -334 332 -334zM405 158c-109 0 -194 85 -194 192s85 192 194 192c91 0 166 -59 183 -142h-68
c-13 54 -65 80 -115 80c-80 0 -129 -63 -129 -130s49 -130 129 -130c50 0 102 26 115 80h68c-17 -83 -92 -142 -183 -142z" />
    <glyph glyph-name="registered" unicode="&#xae;" horiz-adv-x="804" 
d="M402 712c200 0 362 -162 362 -362s-162 -362 -362 -362s-362 162 -362 362s162 362 362 362zM402 16c183 0 332 149 332 334s-149 334 -332 334s-332 -149 -332 -334s149 -334 332 -334zM546 416c0 -52 -24 -91 -72 -108l112 -143h-71l-105 132h-4h-52v-132h-62v370h62
h52c93 0 140 -57 140 -119zM354 475v-118h56c48 0 74 24 74 59c0 36 -26 59 -74 59h-56z" />
    <glyph glyph-name="section" unicode="&#xa7;" horiz-adv-x="510" 
d="M392 136c29 -27 48 -60 48 -105c0 -82 -69 -143 -180 -143s-190 61 -190 167h66c0 -80 61 -103 124 -103s114 23 114 79c0 65 -85 96 -167 136c-79 38 -157 83 -157 172c0 52 29 97 74 127c-27 26 -44 59 -44 103c0 82 70 143 171 143s179 -61 179 -167h-66
c0 80 -60 103 -113 103s-105 -23 -105 -79c0 -63 78 -95 157 -133c78 -39 157 -84 157 -175c0 -51 -27 -94 -68 -125zM116 339c0 -55 53 -86 116 -115c35 -16 74 -32 108 -51c38 24 54 56 54 88c0 57 -55 88 -119 118c-34 16 -70 31 -102 50c-40 -24 -57 -57 -57 -90z" />
    <glyph glyph-name="trademark" unicode="&#x2122;" horiz-adv-x="464" 
d="M195 700v-37h-57v-163h-40v163h-58v37h155zM424 700v-200h-40v129l-42 -85h-40l-43 86v-130h-40v200h40h7l56 -115l56 115h46z" />
    <glyph glyph-name="degree" unicode="&#xb0;" horiz-adv-x="386" 
d="M193 510c-88 0 -153 67 -153 150s65 150 153 150s153 -67 153 -150s-63 -150 -153 -150zM193 570c53 0 89 40 89 90s-36 90 -89 90s-89 -40 -89 -90s36 -90 89 -90z" />
    <glyph glyph-name="estimated" unicode="&#x212e;" horiz-adv-x="820" 
d="M410 710c221 0 370 -161 370 -360c0 -10 -5 -15 -15 -15h-560c-10 0 -15 -5 -15 -15v-192c0 -8 2 -13 7 -19c54 -57 128 -89 233 -89c99 0 177 36 231 97c5 6 10 9 18 9h37c13 0 18 -9 9 -19c-67 -72 -168 -117 -295 -117c-241 0 -390 161 -390 360s149 360 370 360z
M630 572c0 8 -2 13 -7 19c-54 57 -128 89 -213 89s-159 -32 -213 -89c-5 -6 -7 -11 -7 -19v-192c0 -10 5 -15 15 -15h410c10 0 15 5 15 15v192z" />
    <glyph glyph-name="uni2116" unicode="&#x2116;" horiz-adv-x="966" 
d="M773 412c-88 0 -153 67 -153 150s65 150 153 150s153 -67 153 -150s-63 -150 -153 -150zM480 700h70v-700h-60l-340 560v-560h-70v700h60l340 -560v560zM773 472c53 0 89 40 89 90s-36 90 -89 90s-89 -40 -89 -90s36 -90 89 -90zM632 278v64h282v-64h-282z" />
    <glyph glyph-name="asciicircum" unicode="^" horiz-adv-x="500" 
d="M284 700l176 -300h-77l-133 227l-133 -227h-77l176 300h68z" />
    <glyph glyph-name="dagger" unicode="&#x2020;" horiz-adv-x="480" 
d="M420 535v-64h-147v-471h-66v471h-147v64h147v165h66v-165h147z" />
    <glyph glyph-name="daggerdbl" unicode="&#x2021;" horiz-adv-x="480" 
d="M420 471h-147v-242h147v-64h-147v-165h-66v165h-147v64h147v242h-147v64h147v165h66v-165h147v-64z" />
    <glyph glyph-name="uni0308" unicode="&#x308;" horiz-adv-x="0" 
d="M-300 580v80h80v-80h-80zM-100 580v80h80v-80h-80z" />
    <glyph glyph-name="uni0307" unicode="&#x307;" horiz-adv-x="0" 
d="M-115 580v90h90v-90h-90z" />
    <glyph glyph-name="gravecomb" unicode="&#x300;" horiz-adv-x="0" 
d="M-20 570l-80 130h-80l96 -130h64z" />
    <glyph glyph-name="acutecomb" unicode="&#x301;" horiz-adv-x="0" 
d="M-180 570h64l96 130h-80z" />
    <glyph glyph-name="uni030B" unicode="&#x30b;" horiz-adv-x="0" 
d="M-317 570h68l76 130h-74zM-174 570h68l86 130h-74z" />
    <glyph glyph-name="uni0302" unicode="&#x302;" horiz-adv-x="0" 
d="M-20 570h-75l-70 87l-70 -87h-75l106 130h74h4z" />
    <glyph glyph-name="uni030C" unicode="&#x30c;" horiz-adv-x="0" 
d="M-95 700h75l-106 -130h-74h-4l-106 130h75l70 -87z" />
    <glyph glyph-name="uni0306" unicode="&#x306;" horiz-adv-x="0" 
d="M-160 562c-84 0 -140 47 -140 130h64c0 -52 27 -72 76 -72s76 20 76 72h64c0 -83 -54 -130 -140 -130z" />
    <glyph glyph-name="uni030A" unicode="&#x30a;" horiz-adv-x="0" 
d="M-126 550c-63 0 -106 43 -106 100s43 100 106 100c64 0 106 -43 106 -100s-42 -100 -106 -100zM-126 601c34 0 52 21 52 49s-18 49 -52 49c-33 0 -51 -21 -51 -49s18 -49 51 -49z" />
    <glyph glyph-name="tildecomb" unicode="&#x303;" horiz-adv-x="0" 
d="M-300 580c0 123 72 139 141 87c53 -40 81 -56 81 23h58c0 -123 -71 -139 -140 -87c-53 40 -82 56 -82 -23h-58z" />
    <glyph glyph-name="uni0304" unicode="&#x304;" horiz-adv-x="0" 
d="M-280 580v58h260v-58h-260z" />
    <glyph glyph-name="uni0312" unicode="&#x312;" horiz-adv-x="0" 
d="M-66 960l-30 -170h66l10 170h-46z" />
    <glyph glyph-name="uni0326" unicode="&#x326;" horiz-adv-x="0" 
d="M-50 -240l30 170h-66l-10 -170h46z" />
    <glyph glyph-name="uni0327" unicode="&#x327;" horiz-adv-x="0" 
d="M-113 -45c57 -10 93 -40 93 -81c0 -50 -37 -100 -205 -90v54c98 -8 147 7 147 36c0 28 -35 39 -93 41v85h58v-45z" />
    <glyph glyph-name="uni0328" unicode="&#x328;" horiz-adv-x="0" 
d="M-79 -212c-54 0 -82 32 -82 76c0 40 25 90 72 136h69c-46 -42 -76 -91 -76 -124c0 -22 13 -31 34 -31c15 0 28 3 42 9v-55c-17 -7 -36 -11 -59 -11z" />
    <glyph glyph-name="acute" unicode="&#xb4;" horiz-adv-x="200" 
d="M20 570h64l96 130h-80z" />
    <glyph glyph-name="breve" unicode="&#x2d8;" horiz-adv-x="320" 
d="M160 562c-84 0 -140 47 -140 130h64c0 -52 27 -72 76 -72s76 20 76 72h64c0 -83 -54 -130 -140 -130z" />
    <glyph glyph-name="caron" unicode="&#x2c7;" horiz-adv-x="330" 
d="M235 700h75l-106 -130h-74h-4l-106 130h75l70 -87z" />
    <glyph glyph-name="cedilla" unicode="&#xb8;" horiz-adv-x="245" 
d="M132 -45c57 -10 93 -40 93 -81c0 -50 -37 -100 -205 -90v54c98 -8 147 7 147 36c0 28 -35 39 -93 41v85h58v-45z" />
    <glyph glyph-name="circumflex" unicode="&#x2c6;" horiz-adv-x="330" 
d="M310 570h-75l-70 87l-70 -87h-75l106 130h74h4z" />
    <glyph glyph-name="dieresis" unicode="&#xa8;" horiz-adv-x="320" 
d="M20 580v80h80v-80h-80zM220 580v80h80v-80h-80z" />
    <glyph glyph-name="dotaccent" unicode="&#x2d9;" horiz-adv-x="130" 
d="M20 580v90h90v-90h-90z" />
    <glyph glyph-name="grave" unicode="`" horiz-adv-x="200" 
d="M180 570l-80 130h-80l96 -130h64z" />
    <glyph glyph-name="hungarumlaut" unicode="&#x2dd;" horiz-adv-x="337" 
d="M20 570h68l76 130h-74zM163 570h68l86 130h-74z" />
    <glyph glyph-name="macron" unicode="&#xaf;" horiz-adv-x="300" 
d="M20 580v58h260v-58h-260z" />
    <glyph glyph-name="ogonek" unicode="&#x2db;" horiz-adv-x="181" 
d="M102 -212c-54 0 -82 32 -82 76c0 40 25 90 72 136h69c-46 -42 -76 -91 -76 -124c0 -22 13 -31 34 -31c15 0 28 3 42 9v-55c-17 -7 -36 -11 -59 -11z" />
    <glyph glyph-name="ring" unicode="&#x2da;" horiz-adv-x="252" 
d="M126 550c-63 0 -106 43 -106 100s43 100 106 100c64 0 106 -43 106 -100s-42 -100 -106 -100zM126 601c34 0 52 21 52 49s-18 49 -52 49c-33 0 -51 -21 -51 -49s18 -49 51 -49z" />
    <glyph glyph-name="tilde" unicode="&#x2dc;" horiz-adv-x="320" 
d="M20 580c0 123 72 139 141 87c53 -40 81 -56 81 23h58c0 -123 -71 -139 -140 -87c-53 40 -82 56 -82 -23h-58z" />
    <glyph glyph-name="brevecy" horiz-adv-x="300" 
d="M20 580v58h260v-58h-260z" />
    </font>
</defs>
</svg>
